<svg width="26" height="26" viewBox="0 0 26 26" fill="none" xmlns="http://www.w3.org/2000/svg">
<path d="M19 14.156V14.563V20.167C19 21.825 17.656 23.167 16 23.167H6C4.345 23.167 3 21.825 3 20.167V10.167C3 8.50999 4.345 7.16699 6 7.16699H12.345L15.535 3.99699H6C2.687 3.99699 0 6.68399 0 9.99699V19.997C0 23.31 2.687 25.997 6 25.997H16C19.314 25.997 22 23.31 22 19.997V11.188L19 14.156" fill="#464646"/>
<path d="M20.72 8.637L11.828 17.529H9V14.7L17.89 5.81L20.72 8.637Z" fill="#464646"/>
<path d="M22.7131 6.64331L19.8852 3.81439L22.7141 0.986456L25.542 3.81538L22.7131 6.64331Z" fill="#464646"/>
</svg>
