<svg width="180" height="180" viewBox="0 0 180 180" fill="none" xmlns="http://www.w3.org/2000/svg">
<path d="M89.9829 180C40.3659 180 0 139.629 0 90.0057C0 40.3767 40.3659 0 89.9829 0C139.618 0 180 40.3767 180 90.0057C180 139.629 139.618 180 89.9829 180Z" fill="#076AB0"/>
<path d="M80.3245 119.123C85.782 119.123 90 121.661 90 127.497C90 133.337 85.782 135.875 81.0722 135.875H39.6675C34.21 135.875 30 133.337 30 127.497C30 124.837 31.6072 122.549 32.8467 121.026C43.1379 108.466 54.2967 97.0385 63.7163 83.0821C65.9472 79.7833 68.0582 75.8501 68.0582 71.2826C68.0582 66.0806 64.216 61.509 59.1304 61.509C44.8731 61.509 51.6899 82.0671 39.7914 82.0671C33.8422 82.0671 30.7397 77.7533 30.7397 72.8051C30.7397 56.8145 44.6252 44 59.8741 44C75.1229 44 87.3932 54.277 87.3932 70.3944C87.3932 88.0303 68.1822 105.547 57.6431 119.123H80.3245Z" fill="white"/>
<path d="M127.973 62.6594H97.7385C91.3618 62.6594 89 58.1816 89 53.8317C89 49.3498 91.2437 45 97.7385 45H140.494C146.52 45 149 50.8851 149 54.2156C149 56.7743 147.701 59.461 146.284 62.6594L116.991 127.152C113.684 134.32 112.385 136.875 107.071 136.875C100.573 136.875 97.2661 131.502 97.2661 127.791C97.2661 126.256 97.6204 125.105 98.4508 123.314L127.973 62.6594Z" fill="white"/>
</svg>
