<svg width="180" height="180" viewBox="0 0 180 180" fill="none" xmlns="http://www.w3.org/2000/svg">
<path d="M89.9829 180C40.3659 180 0 139.629 0 90.0057C0 40.3767 40.3659 0 89.9829 0C139.618 0 180 40.3767 180 90.0057C180 139.629 139.618 180 89.9829 180Z" fill="#076AB0"/>
<path d="M104.753 109.567C104.753 118.696 109.633 126.526 117.998 126.526C125.949 126.526 131.247 119.022 131.247 109.567C131.247 100.922 126.785 92.6082 117.998 92.6082C110.051 92.6082 104.753 99.9492 104.753 109.567ZM83 109.567C83 84.9465 104.335 50.3821 118.42 35.0535C119.536 33.7493 121.209 32.4452 122.882 31.1411C124.415 30 125.949 30 127.064 30C130.968 30 136.967 36.0368 136.967 41.9053C136.967 44.1823 135.708 46.1385 134.035 48.589C128.458 56.5767 119.396 67.0096 114.791 74.6766L115.07 75.0026C117.584 73.6985 120.786 73.0464 123.862 73.0464C140.592 73.0464 153 90.326 153 109.567C153 130.759 138.636 150 117.998 150C96.5278 150 83 131.253 83 109.567Z" fill="white"/>
<path d="M45.3413 52.0628H36.8172C29.8864 52.0628 27 46.2076 27 40.5289C27 34.6838 30.6091 29 36.8172 29H57.3222C63.5303 29 67 34.1799 67 40.8614V135.97C67 144.324 62.3809 149 56.1685 149C49.9647 149 45.3413 144.324 45.3413 135.97V52.0628Z" fill="white"/>
</svg>
