<svg width="180" height="180" viewBox="0 0 180 180" fill="none" xmlns="http://www.w3.org/2000/svg">
<path d="M89.9829 180C40.3659 180 0 139.629 0 90.0057C0 40.3767 40.3659 0 89.9829 0C139.618 0 180 40.3767 180 90.0057C180 139.629 139.618 180 89.9829 180Z" fill="#076AB0"/>
<path d="M79.3245 122.855C84.782 122.855 89 125.755 89 132.425C89 139.1 84.782 142 80.0722 142H38.6675C33.21 142 29 139.1 29 132.425C29 129.385 30.6072 126.77 31.8467 125.03C42.1379 110.675 53.2967 97.6154 62.7163 81.6652C64.9472 77.8952 67.0582 73.4001 67.0582 68.1801C67.0582 62.235 63.216 57.0102 58.1304 57.0102C43.8731 57.0102 50.6899 80.5052 38.7914 80.5052C32.8422 80.5052 29.7397 75.5751 29.7397 69.9201C29.7397 51.6452 43.6252 37 58.8741 37C74.1229 37 86.3932 48.7451 86.3932 67.165C86.3932 87.3203 67.1822 107.34 56.6431 122.855H79.3245Z" fill="white"/>
<path d="M115.175 75.3851C118.143 74.6601 121.363 73.9351 124.455 73.9351C139.425 73.9351 150.062 87.8599 150.062 104.825C150.062 129.045 138.683 145 117.278 145C108.496 145 90.0625 138.325 90.0625 125.565C90.0625 120.2 93.8968 115.705 98.4732 115.705C103.425 115.705 109.362 124.985 117.649 124.985C126.311 124.985 130.767 115.12 130.767 105.985C130.767 97.2851 126.558 91.34 118.889 91.34C111.712 91.34 110.598 96.125 104.286 96.125C99.4627 96.125 96.989 91.775 96.989 89.31C96.989 87.4203 97.2363 85.9749 97.36 84.3752L100.456 53.7752C101.813 42.465 104.167 40 110.104 40H139.916C145.61 40 148.945 43.9104 148.945 49.1351C148.945 59.1402 142.518 60.0102 140.287 60.0102H117.03L115.175 75.3851Z" fill="white"/>
</svg>
