<svg width="180" height="180" viewBox="0 0 180 180" fill="none" xmlns="http://www.w3.org/2000/svg">
<path d="M89.9829 180C40.3659 180 0 139.629 0 90.0057C0 40.3767 40.3659 0 89.9829 0C139.618 0 180 40.3767 180 90.0057C180 139.629 139.618 180 89.9829 180Z" fill="#076AB0"/>
<path d="M121.903 56.318C121.903 67.7919 117.793 77.8038 109.405 84.1749C120.379 90.1879 128 102.384 128 116.765C128 138.615 111.234 157 89.5855 157C67.0226 157 53 137.158 53 122.772C53 115.673 59.2492 110.576 64.7412 110.576C75.1057 110.576 72.667 131.879 89.8903 131.879C97.821 131.879 104.223 124.598 104.223 114.944C104.223 89.4598 78.3065 108.209 78.3065 86.7234C78.3065 67.6099 99.95 80.5343 99.95 60.3286C99.95 53.4054 95.8396 48.1265 88.9758 48.1265C74.496 48.1265 76.4775 65.9716 66.108 65.9716C59.8589 65.9716 56.2008 59.2305 56.2008 52.4953C56.2008 38.2967 72.5146 23 89.4331 23C111.386 23 121.903 42.1194 121.903 56.318Z" fill="white"/>
</svg>
