<svg width="180" height="180" viewBox="0 0 180 180" fill="none" xmlns="http://www.w3.org/2000/svg">
<path d="M89.9829 180C40.3659 180 0 139.629 0 90.0057C0 40.3767 40.3659 0 89.9829 0C139.618 0 180 40.3767 180 90.0057C180 139.629 139.618 180 89.9829 180Z" fill="#076AB0"/>
<path d="M79.3245 123.571C84.782 123.571 89 126.495 89 133.22C89 139.951 84.782 142.875 80.0722 142.875H38.6675C33.21 142.875 29 139.951 29 133.22C29 130.155 30.6072 127.518 31.8467 125.764C42.1379 111.289 53.2967 98.1206 62.7163 82.0374C64.9472 78.236 67.0582 73.7035 67.0582 68.4399C67.0582 62.4453 63.216 57.177 58.1304 57.177C43.8731 57.177 50.6899 80.8678 38.7914 80.8678C32.8422 80.8678 29.7397 75.8966 29.7397 70.1944C29.7397 51.7672 43.6252 37 58.8741 37C74.1229 37 86.3932 48.843 86.3932 67.4164C86.3932 87.7396 67.1822 107.926 56.6431 123.571H79.3245Z" fill="white"/>
<path d="M140.387 123.571C145.844 123.571 150.063 126.495 150.063 133.22C150.063 139.951 145.844 142.875 141.135 142.875H99.73C94.2725 142.875 90.0625 139.951 90.0625 133.22C90.0625 130.155 91.6697 127.518 92.9092 125.764C103.2 111.289 114.359 98.1205 123.779 82.0374C126.01 78.236 128.121 73.7035 128.121 68.4399C128.121 62.4453 124.279 57.177 119.193 57.177C104.936 57.177 111.752 80.8678 99.8539 80.8678C93.9047 80.8678 90.8022 75.8966 90.8022 70.1944C90.8022 51.7672 104.688 37 119.937 37C135.185 37 147.456 48.843 147.456 67.4164C147.456 87.7396 128.245 107.926 117.706 123.571H140.387Z" fill="white"/>
</svg>
