<svg width="180" height="180" viewBox="0 0 180 180" fill="none" xmlns="http://www.w3.org/2000/svg">
<path d="M89.9829 180C40.3659 180 0 139.629 0 90.0057C0 40.3767 40.3659 0 89.9829 0C139.618 0 180 40.3767 180 90.0057C180 139.629 139.618 180 89.9829 180Z" fill="#076AB0"/>
<path d="M111.341 58.0628H102.817C95.8864 58.0628 93 52.2076 93 46.5289C93 40.6838 96.6091 35 102.817 35H123.322C129.53 35 133 40.1799 133 46.8614V141.97C133 150.324 128.381 155 122.168 155C115.965 155 111.341 150.324 111.341 141.97V58.0628Z" fill="white"/>
<path d="M59.3413 58.0628H50.8172C43.8864 58.0628 41 52.2076 41 46.5289C41 40.6838 44.6091 35 50.8172 35H71.3222C77.5303 35 81 40.1799 81 46.8614V141.97C81 150.324 76.3809 155 70.1685 155C63.9647 155 59.3413 150.324 59.3413 141.97V58.0628Z" fill="white"/>
</svg>
