<svg width="180" height="180" viewBox="0 0 180 180" fill="none" xmlns="http://www.w3.org/2000/svg">
<path d="M89.9829 180C40.3659 180 0 139.629 0 90.0057C0 40.3767 40.3659 0 89.9829 0C139.618 0 180 40.3767 180 90.0057C180 139.629 139.618 180 89.9829 180Z" fill="#076AB0"/>
<path d="M127.468 53.0653H92.1949C84.7554 53.0653 82 47.2168 82 41.5354C82 35.6814 84.6176 30 92.1949 30H142.076C149.107 30 152 37.6866 152 42.0367C152 45.3787 150.485 48.8878 148.831 53.0653L114.656 137.3C110.798 146.663 109.283 150 103.083 150C95.5014 150 91.6438 142.982 91.6438 138.136C91.6438 136.131 92.0571 134.627 93.026 132.287L127.468 53.0653Z" fill="white"/>
<path d="M45.3413 52.0628H36.8172C29.8864 52.0628 27 46.2076 27 40.5289C27 34.6838 30.6091 29 36.8172 29H57.3222C63.5303 29 67 34.1799 67 40.8614V135.97C67 144.324 62.3809 149 56.1685 149C49.9647 149 45.3413 144.324 45.3413 135.97V52.0628Z" fill="white"/>
</svg>
