<svg width="180" height="180" viewBox="0 0 180 180" fill="none" xmlns="http://www.w3.org/2000/svg">
<path d="M90.0003 180C139.706 180 180 139.706 180 89.9997C180 40.2943 139.706 0 90.0003 0C40.2943 0 0 40.2943 0 89.9997C0 139.706 40.2943 180 90.0003 180Z" fill="#FD7F2C"/>
<path d="M147.678 30.9926C147.678 32.4521 147.598 33.719 147.44 34.7943C147.281 35.8697 147.004 36.7529 146.607 37.4441C146.289 38.0587 145.852 38.5195 145.297 38.827C144.821 39.134 144.266 39.2878 143.631 39.2878H100.299V168.55C100.299 169.164 100.14 169.702 99.8233 170.163C99.5055 170.624 98.9502 171.008 98.1563 171.315C97.3629 171.545 96.2914 171.738 94.9422 171.891C93.6727 172.122 92.0458 172.237 90.0616 172.237C88.1571 172.237 86.5303 172.122 85.1811 171.891C83.8319 171.738 82.7603 171.545 81.967 171.315C81.1731 171.008 80.6178 170.624 80.3 170.163C79.9827 169.702 79.8239 169.164 79.8239 168.55V39.2878H36.4927C35.8577 39.2878 35.2628 39.134 34.707 38.827C34.2309 38.5195 33.8345 38.0587 33.5167 37.4441C33.1994 36.7529 32.9218 35.8697 32.6837 34.7943C32.5248 33.719 32.4457 32.4521 32.4457 30.9926C32.4457 29.5336 32.5248 28.2661 32.6837 27.1908C32.9218 26.0388 33.1994 25.1173 33.5167 24.4261C33.8345 23.7344 34.2309 23.2353 34.707 22.9283C35.2628 22.6207 35.8577 22.4675 36.4927 22.4675H143.631C144.266 22.4675 144.821 22.6207 145.297 22.9283C145.852 23.2353 146.289 23.7344 146.607 24.4261C147.004 25.1173 147.281 26.0388 147.44 27.1908C147.598 28.2661 147.678 29.5336 147.678 30.9926Z" fill="black"/>
</svg>
