<svg width="128" height="128" viewBox="0 0 128 128" fill="none" xmlns="http://www.w3.org/2000/svg">
<g clip-path="url(#clip0_2_34)">
<path d="M67.9 22.6C73.6 23 78.7 18.8 79.2 12.9C79.6 7.2 75.4 2.1 69.5 1.6C63.8 1.2 58.7 5.4 58.2 11.3C57.8 17.1 62.2 22.2 67.9 22.6Z" fill="black"/>
<path d="M59 26.9C61 25.4 63.5 24.6 66.3 24.7C69.8 25 72.9 27.2 74.6 29.8L85.1 50.7L99.4 60.7C100.6 61.7 101.4 63.2 101.3 64.8C101.2 67.4 98.8 69.3 96.2 69C95.5 69 94.7 68.7 94 68.3L78.6 57.8C78.2 57.4 77.7 56.9 77.4 56.3L73.4 48.5L68.7 69.3L87.3 91.3C87.7 92 88 92.8 88.2 93.5L93.2 120C93.2 120.6 93.2 121 93.2 121.5C92.9 125.5 89.5 128.2 85.6 128.1C82.4 127.8 80 125.5 79.2 122.5L74.5 97.8L59.4 81L55.9 97.1C55.8 97.8 54.7 99.4 54.4 100L40 124.5C38.5 126.7 36.2 128.2 33.4 127.9C29.4 127.6 26.5 124.2 26.8 120.3C26.9 119.1 27.4 118.1 27.8 117.2L41.3 94.7L52.5 45L45.2 50.9L41.2 68.6C40.8 70.8 38.6 72.7 36.2 72.6C33.6 72.5 31.7 70.1 31.8 67.5C31.8 67.4 31.8 67.1 31.9 66.9L36.4 46.3C36.7 45.4 37.1 44.7 37.9 44.1L59 26.9Z" fill="black"/>
</g>
<defs>
<clipPath id="clip0_2_34">
<rect width="128" height="128" fill="white"/>
</clipPath>
</defs>
</svg>
