<svg width="166" height="166" viewBox="0 0 166 166" fill="none" xmlns="http://www.w3.org/2000/svg">
<path d="M165.868 133.431C165.868 137.151 164.566 140.313 161.962 142.917L142.989 161.891C140.385 164.495 137.222 165.797 133.502 165.797C129.782 165.797 126.62 164.495 124.016 161.891L83 120.875L41.9844 161.891C39.3802 164.495 36.218 165.797 32.4978 165.797C28.7775 165.797 25.6153 164.495 23.0112 161.891L4.03796 142.917C1.4338 140.313 0.131714 137.151 0.131714 133.431C0.131714 129.711 1.4338 126.548 4.03796 123.944L45.0536 82.9285L4.03796 41.9129C1.4338 39.3088 0.131714 36.1465 0.131714 32.4263C0.131714 28.7061 1.4338 25.5439 4.03796 22.9397L23.0112 3.96649C25.6153 1.36233 28.7775 0.0602417 32.4978 0.0602417C36.218 0.0602417 39.3802 1.36233 41.9844 3.96649L83 44.9821L124.016 3.96649C126.62 1.36233 129.782 0.0602417 133.502 0.0602417C137.222 0.0602417 140.385 1.36233 142.989 3.96649L161.962 22.9397C164.566 25.5439 165.868 28.7061 165.868 32.4263C165.868 36.1465 164.566 39.3088 161.962 41.9129L120.946 82.9285L161.962 123.944C164.566 126.548 165.868 129.711 165.868 133.431Z" fill="white"/>
</svg>
