<svg width="24" height="24" viewBox="0 0 24 24" fill="none" xmlns="http://www.w3.org/2000/svg">
<path d="M16.3821 22.3448H7.61793C7.00165 22.3467 6.40687 22.1185 5.94997 21.7049C5.49307 21.2913 5.20695 20.7221 5.14759 20.1087L3.72828 5.87503C3.71657 5.75997 3.72917 5.64372 3.76524 5.53383C3.80132 5.42394 3.86007 5.32285 3.9377 5.23711C4.01532 5.15137 4.11009 5.08289 4.21587 5.03611C4.32164 4.98932 4.43607 4.96527 4.55173 4.96552H19.4483C19.5639 4.96553 19.6782 4.98975 19.7838 5.03662C19.8895 5.08349 19.9841 5.15198 20.0617 5.23766C20.1393 5.32334 20.198 5.42433 20.2342 5.5341C20.2704 5.64388 20.2832 5.76002 20.2717 5.87503L18.8524 20.1079C18.7931 20.7214 18.507 21.2906 18.0501 21.7044C17.5932 22.1181 16.9984 22.3465 16.3821 22.3448V22.3448ZM5.46538 6.62069L6.79448 19.944C6.81445 20.1484 6.90987 20.3381 7.06212 20.4759C7.21437 20.6138 7.41253 20.69 7.61793 20.6897H16.3821C16.5875 20.69 16.7856 20.6138 16.9379 20.4759C17.0901 20.3381 17.1856 20.1484 17.2055 19.944L18.5346 6.62069H5.46538Z" fill="black"/>
<path d="M21.5172 6.62069H2.48276C2.26327 6.62069 2.05277 6.5335 1.89757 6.37829C1.74237 6.22309 1.65517 6.01259 1.65517 5.7931C1.65517 5.57361 1.74237 5.36311 1.89757 5.20791C2.05277 5.05271 2.26327 4.96552 2.48276 4.96552H21.5172C21.7367 4.96552 21.9472 5.05271 22.1024 5.20791C22.2576 5.36311 22.3448 5.57361 22.3448 5.7931C22.3448 6.01259 22.2576 6.22309 22.1024 6.37829C21.9472 6.5335 21.7367 6.62069 21.5172 6.62069Z" fill="black"/>
<path d="M12 19.0345C11.7805 19.0345 11.57 18.9473 11.4148 18.7921C11.2596 18.6369 11.1724 18.4264 11.1724 18.2069V9.10345C11.1724 8.88396 11.2596 8.67346 11.4148 8.51826C11.57 8.36306 11.7805 8.27586 12 8.27586C12.2195 8.27586 12.43 8.36306 12.5852 8.51826C12.7404 8.67346 12.8276 8.88396 12.8276 9.10345V18.2069C12.8276 18.4264 12.7404 18.6369 12.5852 18.7921C12.43 18.9473 12.2195 19.0345 12 19.0345Z" fill="black"/>
<path d="M9.10262 19.0345C8.89616 19.0343 8.69722 18.9569 8.54487 18.8176C8.39252 18.6783 8.29775 18.487 8.27917 18.2814L7.45158 9.17793C7.43181 8.95945 7.49959 8.74205 7.64003 8.57352C7.78047 8.405 7.98208 8.29912 8.20055 8.27917C8.41916 8.25985 8.63652 8.32788 8.80511 8.46839C8.97369 8.6089 9.07976 8.81045 9.10014 9.02897L9.92772 18.1324C9.93807 18.247 9.92443 18.3624 9.88766 18.4714C9.85089 18.5804 9.7918 18.6806 9.71416 18.7655C9.63652 18.8503 9.54204 18.9181 9.43674 18.9644C9.33145 19.0107 9.21765 19.0346 9.10262 19.0345Z" fill="black"/>
<path d="M14.8974 19.0345C14.7824 19.0346 14.6686 19.0107 14.5633 18.9644C14.458 18.9181 14.3635 18.8503 14.2858 18.7655C14.2082 18.6806 14.1491 18.5804 14.1123 18.4714C14.0756 18.3624 14.0619 18.247 14.0723 18.1324L14.8999 9.02896C14.9421 8.57379 15.3393 8.24607 15.7995 8.27917C16.0179 8.29912 16.2195 8.40499 16.36 8.57352C16.5004 8.74205 16.5682 8.95945 16.5484 9.17793L15.7208 18.2814C15.7023 18.487 15.6075 18.6783 15.4551 18.8176C15.3028 18.9569 15.1038 19.0343 14.8974 19.0345V19.0345Z" fill="black"/>
<path d="M15.7241 6.62069H8.27586C8.05637 6.62069 7.84587 6.5335 7.69067 6.3783C7.53546 6.22309 7.44827 6.01259 7.44827 5.79311V2.48276C7.44827 2.26327 7.53546 2.05277 7.69067 1.89757C7.84587 1.74237 8.05637 1.65517 8.27586 1.65517H15.7241C15.9436 1.65517 16.1541 1.74237 16.3093 1.89757C16.4645 2.05277 16.5517 2.26327 16.5517 2.48276V5.79311C16.5517 6.01259 16.4645 6.22309 16.3093 6.3783C16.1541 6.5335 15.9436 6.62069 15.7241 6.62069ZM9.10345 4.96552H14.8965V3.31035H9.10345V4.96552Z" fill="black"/>
</svg>
