<svg width="306" height="366" viewBox="0 0 306 366" fill="none" xmlns="http://www.w3.org/2000/svg">
<path d="M249.491 39.383C249.491 35.6583 246.94 32.1383 243.231 32.1383H62.7695C59.0598 32.1383 56.5093 35.6583 56.5093 39.383C56.5093 43.1076 59.0598 46.6277 62.7695 46.6277H243.231C246.94 46.6277 249.491 43.1076 249.491 39.383Z" fill="white" stroke="white" stroke-width="3"/>
<path d="M183.866 240H122.134C118.424 240 115.874 243.52 115.874 247.245C115.874 250.969 118.424 254.489 122.134 254.489H183.866C187.576 254.489 190.126 250.969 190.126 247.245C190.126 243.52 187.575 240 183.866 240Z" fill="white" stroke="white" stroke-width="3"/>
<mask id="path-3-outside-1_4_157" maskUnits="userSpaceOnUse" x="0" y="0" width="306" height="366" fill="black">
<rect fill="white" width="306" height="366"/>
<path d="M289.989 64.2766H273.379V43.2128C273.379 21.0391 258.43 3 240.057 3H65.943C47.5697 3 32.6213 21.0391 32.6213 43.2128V64.2766H16.0113C8.83668 64.2766 3 71.3203 3 79.9787V126.611C3 135.269 8.83668 142.313 16.0113 142.313H18.3406C20.9702 142.313 23.1009 139.741 23.1009 136.568C23.1009 133.396 20.9702 130.824 18.3406 130.824H16.0113C14.0869 130.824 12.5205 128.934 12.5205 126.611V79.9787C12.5205 77.6556 14.0869 75.766 16.0113 75.766H32.6213V309.574C32.6213 314.908 35.2223 319.51 38.9683 321.667V357.255C38.9683 360.428 41.099 363 43.7285 363H84.4412C87.0708 363 89.2015 360.428 89.2015 357.255V340.213C89.2015 337.04 87.0708 334.468 84.4412 334.468C81.8117 334.468 79.681 337.04 79.681 340.213V351.511H48.4888V322.979H257.511V351.511H226.32V340.213C226.32 337.04 224.189 334.468 221.559 334.468C218.93 334.468 216.799 337.04 216.799 340.213V357.255C216.799 360.428 218.93 363 221.559 363H262.271C264.901 363 267.032 360.428 267.032 357.255V321.667C270.778 319.51 273.379 314.908 273.379 309.574V75.766H289.989C291.913 75.766 293.48 77.6556 293.48 79.9787V126.611C293.48 128.934 291.913 130.824 289.989 130.824H287.659C285.03 130.824 282.899 133.396 282.899 136.568C282.899 139.741 285.03 142.313 287.659 142.313H289.989C297.163 142.313 303 135.269 303 126.611V79.9787C303 71.3203 297.163 64.2766 289.989 64.2766ZM42.1418 43.2128C42.1418 27.3743 52.8187 14.4894 65.943 14.4894H240.057C253.181 14.4894 263.858 27.3743 263.858 43.2128V64.2766H42.1418V43.2128ZM263.858 279.798H218.774C212.65 279.798 207.667 273.784 207.667 266.394V252.989H249.578C252.207 252.989 254.338 250.417 254.338 247.245C254.338 244.072 252.207 241.5 249.578 241.5H202.906C200.277 241.5 198.146 244.072 198.146 247.245V266.394C198.146 280.12 207.399 291.287 218.774 291.287H263.858V309.574C263.858 310.612 263.131 311.489 262.271 311.489H43.7285C42.8685 311.489 42.1418 310.612 42.1418 309.574V291.287H87.2263C98.6007 291.287 107.854 280.12 107.854 266.394V247.245C107.854 244.072 105.723 241.5 103.094 241.5H56.4225C53.7929 241.5 51.6623 244.072 51.6623 247.245C51.6623 250.417 53.7929 252.989 56.4225 252.989H98.3335V266.394C98.3335 273.784 93.3505 279.798 87.2263 279.798H42.1418V75.766H148.24V217.468H56.4225C53.7929 217.468 51.6623 220.04 51.6623 223.213C51.6623 226.385 53.7929 228.957 56.4225 228.957H249.578C252.207 228.957 254.338 226.385 254.338 223.213C254.338 220.04 252.207 217.468 249.578 217.468H157.76V75.766H263.858V279.798Z"/>
</mask>
<path d="M289.989 64.2766H273.379V43.2128C273.379 21.0391 258.43 3 240.057 3H65.943C47.5697 3 32.6213 21.0391 32.6213 43.2128V64.2766H16.0113C8.83668 64.2766 3 71.3203 3 79.9787V126.611C3 135.269 8.83668 142.313 16.0113 142.313H18.3406C20.9702 142.313 23.1009 139.741 23.1009 136.568C23.1009 133.396 20.9702 130.824 18.3406 130.824H16.0113C14.0869 130.824 12.5205 128.934 12.5205 126.611V79.9787C12.5205 77.6556 14.0869 75.766 16.0113 75.766H32.6213V309.574C32.6213 314.908 35.2223 319.51 38.9683 321.667V357.255C38.9683 360.428 41.099 363 43.7285 363H84.4412C87.0708 363 89.2015 360.428 89.2015 357.255V340.213C89.2015 337.04 87.0708 334.468 84.4412 334.468C81.8117 334.468 79.681 337.04 79.681 340.213V351.511H48.4888V322.979H257.511V351.511H226.32V340.213C226.32 337.04 224.189 334.468 221.559 334.468C218.93 334.468 216.799 337.04 216.799 340.213V357.255C216.799 360.428 218.93 363 221.559 363H262.271C264.901 363 267.032 360.428 267.032 357.255V321.667C270.778 319.51 273.379 314.908 273.379 309.574V75.766H289.989C291.913 75.766 293.48 77.6556 293.48 79.9787V126.611C293.48 128.934 291.913 130.824 289.989 130.824H287.659C285.03 130.824 282.899 133.396 282.899 136.568C282.899 139.741 285.03 142.313 287.659 142.313H289.989C297.163 142.313 303 135.269 303 126.611V79.9787C303 71.3203 297.163 64.2766 289.989 64.2766ZM42.1418 43.2128C42.1418 27.3743 52.8187 14.4894 65.943 14.4894H240.057C253.181 14.4894 263.858 27.3743 263.858 43.2128V64.2766H42.1418V43.2128ZM263.858 279.798H218.774C212.65 279.798 207.667 273.784 207.667 266.394V252.989H249.578C252.207 252.989 254.338 250.417 254.338 247.245C254.338 244.072 252.207 241.5 249.578 241.5H202.906C200.277 241.5 198.146 244.072 198.146 247.245V266.394C198.146 280.12 207.399 291.287 218.774 291.287H263.858V309.574C263.858 310.612 263.131 311.489 262.271 311.489H43.7285C42.8685 311.489 42.1418 310.612 42.1418 309.574V291.287H87.2263C98.6007 291.287 107.854 280.12 107.854 266.394V247.245C107.854 244.072 105.723 241.5 103.094 241.5H56.4225C53.7929 241.5 51.6623 244.072 51.6623 247.245C51.6623 250.417 53.7929 252.989 56.4225 252.989H98.3335V266.394C98.3335 273.784 93.3505 279.798 87.2263 279.798H42.1418V75.766H148.24V217.468H56.4225C53.7929 217.468 51.6623 220.04 51.6623 223.213C51.6623 226.385 53.7929 228.957 56.4225 228.957H249.578C252.207 228.957 254.338 226.385 254.338 223.213C254.338 220.04 252.207 217.468 249.578 217.468H157.76V75.766H263.858V279.798Z" fill="white"/>
<path d="M289.989 64.2766H273.379V43.2128C273.379 21.0391 258.43 3 240.057 3H65.943C47.5697 3 32.6213 21.0391 32.6213 43.2128V64.2766H16.0113C8.83668 64.2766 3 71.3203 3 79.9787V126.611C3 135.269 8.83668 142.313 16.0113 142.313H18.3406C20.9702 142.313 23.1009 139.741 23.1009 136.568C23.1009 133.396 20.9702 130.824 18.3406 130.824H16.0113C14.0869 130.824 12.5205 128.934 12.5205 126.611V79.9787C12.5205 77.6556 14.0869 75.766 16.0113 75.766H32.6213V309.574C32.6213 314.908 35.2223 319.51 38.9683 321.667V357.255C38.9683 360.428 41.099 363 43.7285 363H84.4412C87.0708 363 89.2015 360.428 89.2015 357.255V340.213C89.2015 337.04 87.0708 334.468 84.4412 334.468C81.8117 334.468 79.681 337.04 79.681 340.213V351.511H48.4888V322.979H257.511V351.511H226.32V340.213C226.32 337.04 224.189 334.468 221.559 334.468C218.93 334.468 216.799 337.04 216.799 340.213V357.255C216.799 360.428 218.93 363 221.559 363H262.271C264.901 363 267.032 360.428 267.032 357.255V321.667C270.778 319.51 273.379 314.908 273.379 309.574V75.766H289.989C291.913 75.766 293.48 77.6556 293.48 79.9787V126.611C293.48 128.934 291.913 130.824 289.989 130.824H287.659C285.03 130.824 282.899 133.396 282.899 136.568C282.899 139.741 285.03 142.313 287.659 142.313H289.989C297.163 142.313 303 135.269 303 126.611V79.9787C303 71.3203 297.163 64.2766 289.989 64.2766ZM42.1418 43.2128C42.1418 27.3743 52.8187 14.4894 65.943 14.4894H240.057C253.181 14.4894 263.858 27.3743 263.858 43.2128V64.2766H42.1418V43.2128ZM263.858 279.798H218.774C212.65 279.798 207.667 273.784 207.667 266.394V252.989H249.578C252.207 252.989 254.338 250.417 254.338 247.245C254.338 244.072 252.207 241.5 249.578 241.5H202.906C200.277 241.5 198.146 244.072 198.146 247.245V266.394C198.146 280.12 207.399 291.287 218.774 291.287H263.858V309.574C263.858 310.612 263.131 311.489 262.271 311.489H43.7285C42.8685 311.489 42.1418 310.612 42.1418 309.574V291.287H87.2263C98.6007 291.287 107.854 280.12 107.854 266.394V247.245C107.854 244.072 105.723 241.5 103.094 241.5H56.4225C53.7929 241.5 51.6623 244.072 51.6623 247.245C51.6623 250.417 53.7929 252.989 56.4225 252.989H98.3335V266.394C98.3335 273.784 93.3505 279.798 87.2263 279.798H42.1418V75.766H148.24V217.468H56.4225C53.7929 217.468 51.6623 220.04 51.6623 223.213C51.6623 226.385 53.7929 228.957 56.4225 228.957H249.578C252.207 228.957 254.338 226.385 254.338 223.213C254.338 220.04 252.207 217.468 249.578 217.468H157.76V75.766H263.858V279.798Z" stroke="white" stroke-width="6" mask="url(#path-3-outside-1_4_157)"/>
</svg>
