<svg width="306" height="333" viewBox="0 0 306 333" fill="none" xmlns="http://www.w3.org/2000/svg">
<mask id="path-1-outside-1_4_146" maskUnits="userSpaceOnUse" x="0" y="0" width="306" height="333" fill="black">
<rect fill="white" width="306" height="333"/>
<path d="M69.2052 221.236C69.2053 220.537 69.0916 219.846 68.8708 219.2C68.65 218.555 68.3263 217.968 67.9182 217.474C67.5101 216.98 67.0256 216.588 66.4924 216.321C65.9593 216.053 65.3878 215.916 64.8107 215.916H24.9727C23.8072 215.916 22.6894 216.476 21.8653 217.474C21.0411 218.472 20.5781 219.825 20.5781 221.236C20.5781 222.647 21.0411 224 21.8653 224.998C22.6894 225.996 23.8072 226.556 24.9727 226.556H64.8107C65.3878 226.556 65.9593 226.419 66.4924 226.151C67.0256 225.884 67.5101 225.492 67.9182 224.998C68.3263 224.504 68.65 223.918 68.8708 223.272C69.0916 222.627 69.2053 221.935 69.2052 221.236V221.236ZM24.9727 162.714H68.9729C70.1384 162.714 71.2562 162.154 72.0803 161.156C72.9044 160.158 73.3674 158.805 73.3674 157.394C73.3674 155.983 72.9044 154.63 72.0803 153.632C71.2562 152.634 70.1384 152.074 68.9729 152.074H24.9727C23.8072 152.074 22.6894 152.634 21.8653 153.632C21.0411 154.63 20.5781 155.983 20.5781 157.394C20.5781 158.805 21.0411 160.158 21.8653 161.156C22.6894 162.154 23.8072 162.714 24.9727 162.714V162.714ZM69.2052 189.315C69.2053 188.616 69.0916 187.925 68.8708 187.279C68.65 186.634 68.3263 186.047 67.9182 185.553C67.5101 185.059 67.0256 184.667 66.4924 184.4C65.9593 184.132 65.3878 183.995 64.8107 183.995H7.39453C6.22903 183.995 5.11126 184.555 4.28713 185.553C3.46299 186.551 3 187.904 3 189.315C3 190.726 3.46299 192.079 4.28713 193.077C5.11126 194.075 6.22903 194.635 7.39453 194.635H64.8107C65.3878 194.635 65.9593 194.498 66.4924 194.23C67.0256 193.963 67.5101 193.571 67.9182 193.077C68.3263 192.583 68.65 191.997 68.8708 191.351C69.0916 190.706 69.2053 190.014 69.2052 189.315V189.315ZM33.7617 130.793H77.7116C78.8771 130.793 79.9949 130.233 80.819 129.235C81.6431 128.237 82.1061 126.884 82.1061 125.473C82.1061 124.062 81.6431 122.709 80.819 121.711C79.9949 120.713 78.8771 120.153 77.7116 120.153H33.7617C32.5962 120.153 31.4784 120.713 30.6543 121.711C29.8302 122.709 29.3672 124.062 29.3672 125.473C29.3672 126.884 29.8302 128.237 30.6543 129.235C31.4784 130.233 32.5962 130.793 33.7617 130.793V130.793ZM270.232 98.7871C268.437 96.6135 266.591 94.5257 264.695 92.5238L271.166 79.4054L271.912 79.9442V79.9435C273.067 80.7846 274.39 81.2295 275.739 81.2306C276.361 81.2302 276.98 81.1364 277.583 80.9514C278.538 80.6635 279.436 80.1491 280.226 79.438C281.015 78.7269 281.68 77.8333 282.183 76.8089L288.53 63.94C289.549 61.8754 289.848 59.4055 289.363 57.0736C288.877 54.7417 287.646 52.7388 285.941 51.5056L261.492 33.8298C259.786 32.5995 257.747 32.2387 255.821 32.8265C253.896 33.4142 252.241 34.9026 251.221 36.9651L244.874 49.834C244.369 50.8562 244.036 51.9887 243.893 53.1669C243.75 54.345 243.801 55.5457 244.041 56.7004C244.282 57.855 244.708 58.941 245.295 59.8962C245.882 60.8515 246.619 61.6574 247.464 62.2678L248.211 62.8079L242.576 74.2266C231.718 67.403 220 62.806 207.9 60.6226V39.8712H211.553C214.359 39.8672 217.049 38.5158 219.034 36.1135C221.018 33.7111 222.135 30.4539 222.138 27.0564V15.8148C222.135 12.4173 221.018 9.1601 219.034 6.75771C217.049 4.35532 214.359 3.00393 211.553 3H170.695C167.889 3.00396 165.198 4.35538 163.214 6.75778C161.229 9.16018 160.113 12.4174 160.11 15.8148V27.0564C160.113 30.4538 161.229 33.711 163.214 36.1134C165.198 38.5158 167.889 39.8672 170.695 39.8712H174.348V60.6226C162.248 62.8059 150.53 67.403 139.671 74.2267L134.037 62.8081L134.783 62.2685C135.628 61.658 136.365 60.8522 136.952 59.8969C137.539 58.9416 137.965 57.8556 138.206 56.7009C138.447 55.5463 138.497 54.3455 138.354 53.1673C138.212 51.9891 137.879 50.8564 137.374 49.834L131.026 36.9652C130.005 34.9027 128.351 33.4143 126.426 32.8264C124.501 32.2385 122.461 32.5992 120.755 33.8292L96.3071 51.5063C94.6034 52.7412 93.3739 54.7438 92.8883 57.0748C92.4027 59.4057 92.7006 61.8747 93.7167 63.9401L100.065 76.8089C100.567 77.8334 101.232 78.7271 102.022 79.4381C102.811 80.1492 103.709 80.6636 104.664 80.9514C105.267 81.1364 105.886 81.2302 106.508 81.2306C107.857 81.2292 109.18 80.7843 110.336 79.9435V79.9442L111.081 79.4055L117.552 92.5237C115.66 94.5296 113.814 96.6173 112.015 98.7865C96.3689 117.728 85.7136 141.861 81.3966 168.135C77.0797 194.408 79.2951 221.64 87.7627 246.389C96.2303 271.138 110.57 292.291 128.968 307.174C147.366 322.056 168.996 330 191.123 330C213.25 330 234.88 322.057 253.278 307.174C271.676 292.292 286.016 271.139 294.484 246.39C302.951 221.641 305.167 194.409 300.85 168.136C296.534 141.862 285.878 117.729 270.232 98.7872L270.232 98.7871ZM258.101 43.7712L280.318 59.8343L275.303 70.0021L253.085 53.9391L258.101 43.7712ZM255.756 68.2634L263.62 73.9493L257.793 85.7617C255.33 83.5403 252.804 81.4527 250.212 79.4989L255.756 68.2634ZM170.695 29.2309C170.219 29.2301 169.762 29.0007 169.426 28.5931C169.089 28.1854 168.9 27.6328 168.899 27.0564V15.8148C168.9 15.2384 169.089 14.6857 169.426 14.2781C169.762 13.8705 170.219 13.6411 170.695 13.6403H211.553C212.029 13.6409 212.485 13.8702 212.822 14.2779C213.159 14.6856 213.348 15.2383 213.349 15.8148V27.0564C213.348 27.6329 213.159 28.1856 212.822 28.5933C212.485 29.001 212.029 29.2302 211.553 29.2309H170.695ZM199.111 39.8712V59.4595C196.465 59.2351 193.803 59.121 191.124 59.1173C188.446 59.1173 185.784 59.2314 183.137 59.4595V39.8712H199.111ZM132.035 79.4991C129.447 81.4552 126.921 83.5427 124.455 85.7617L118.627 73.9495L126.492 68.2634L132.035 79.4991ZM106.944 70.0021L101.929 59.835L124.146 43.7713L129.162 53.9391L106.944 70.0021ZM264.017 282.805C247.153 303.221 224.963 315.927 201.228 318.757C177.494 321.587 153.683 314.367 133.852 298.325C114.022 282.284 99.3996 258.415 92.4764 230.786C85.5532 203.156 86.7577 173.474 95.8845 146.799C105.011 120.124 121.496 98.1049 142.529 84.4942C163.563 70.8835 187.844 66.523 211.235 72.1559C234.627 77.7887 255.681 93.0662 270.811 115.385C285.941 137.705 294.211 165.685 294.211 194.558C294.248 210.953 291.598 227.195 286.416 242.343C281.233 257.49 273.62 271.243 264.017 282.805V282.805ZM250.009 123.27C236.385 106.777 218.46 96.5124 199.286 94.2261C180.112 91.9398 160.877 97.7728 144.858 110.731C128.838 123.69 117.026 142.972 111.433 165.292C105.84 187.612 106.813 211.589 114.186 233.138C121.559 254.688 134.875 272.475 151.867 283.47C168.858 294.465 188.473 297.988 207.369 293.438C226.266 288.887 243.274 276.545 255.497 258.515C267.719 240.485 274.4 217.882 274.4 194.558C274.429 181.313 272.289 168.193 268.102 155.956C263.916 143.719 257.766 132.61 250.009 123.27V123.27ZM246.731 254.553L242.442 249.361C241.618 248.363 240.5 247.802 239.334 247.802C238.169 247.802 237.051 248.363 236.227 249.361C235.402 250.359 234.939 251.712 234.939 253.123C234.939 254.534 235.402 255.887 236.227 256.885L240.505 262.065C228.042 275.508 212.184 283.442 195.518 284.574V277.299C195.518 275.888 195.055 274.534 194.231 273.537C193.407 272.539 192.289 271.978 191.124 271.978C189.958 271.978 188.84 272.539 188.016 273.537C187.192 274.534 186.729 275.888 186.729 277.299V284.574C170.007 283.438 154.1 275.454 141.619 261.932L145.787 256.885C146.608 255.887 147.068 254.535 147.067 253.126C147.066 251.717 146.603 250.366 145.78 249.37C144.957 248.374 143.841 247.813 142.677 247.812C141.514 247.81 140.397 248.367 139.572 249.361L135.408 254.403C124.277 239.305 117.706 220.082 116.769 199.878H122.779C123.945 199.878 125.062 199.317 125.886 198.32C126.711 197.322 127.174 195.969 127.174 194.558C127.174 193.147 126.711 191.793 125.886 190.796C125.062 189.798 123.945 189.237 122.779 189.237H116.769C117.705 169.061 124.259 149.864 135.362 134.776L139.572 139.872C139.98 140.366 140.465 140.758 140.998 141.026C141.531 141.293 142.103 141.431 142.68 141.431C143.257 141.431 143.828 141.293 144.362 141.026C144.895 140.758 145.379 140.366 145.787 139.872C146.195 139.378 146.519 138.792 146.74 138.146C146.961 137.501 147.075 136.809 147.075 136.11C147.075 135.411 146.961 134.719 146.74 134.074C146.519 133.428 146.195 132.842 145.787 132.348L141.567 127.239C154.056 113.684 169.983 105.679 186.729 104.542V111.817C186.729 113.228 187.192 114.581 188.016 115.579C188.84 116.576 189.958 117.137 191.124 117.137C192.289 117.137 193.407 116.576 194.231 115.579C195.055 114.581 195.518 113.228 195.518 111.817V104.542C212.208 105.676 228.086 113.63 240.557 127.106L236.227 132.348C235.402 133.346 234.939 134.699 234.939 136.11C234.939 137.521 235.402 138.874 236.227 139.872C237.051 140.87 238.169 141.431 239.334 141.431C240.5 141.431 241.618 140.87 242.442 139.872L246.776 134.625C257.945 149.735 264.54 168.993 265.479 189.237H259.469C258.303 189.237 257.186 189.798 256.362 190.796C255.537 191.793 255.074 193.147 255.074 194.558C255.074 195.969 255.537 197.322 256.362 198.32C257.186 199.317 258.303 199.878 259.469 199.878H265.479C264.539 220.151 257.927 239.434 246.731 254.553ZM73.5997 247.837H33.7617C32.5962 247.837 31.4784 248.397 30.6543 249.395C29.8302 250.393 29.3672 251.746 29.3672 253.157C29.3672 254.568 29.8302 255.921 30.6543 256.919C31.4784 257.917 32.5962 258.477 33.7617 258.477H73.5997C74.7652 258.477 75.883 257.917 76.7071 256.919C77.5313 255.921 77.9943 254.568 77.9943 253.157C77.9943 251.746 77.5313 250.393 76.7071 249.395C75.883 248.397 74.7652 247.837 73.5997 247.837ZM207.826 163.221C206.355 159.856 204.252 156.956 201.687 154.754C199.122 152.551 196.166 151.108 193.057 150.54C189.947 149.972 186.771 150.294 183.783 151.482C180.795 152.669 178.079 154.689 175.853 157.377L151.624 186.71C148.283 190.763 146.23 196.113 145.827 201.817C145.424 207.522 146.696 213.216 149.42 217.897C152.145 222.577 156.146 225.944 160.719 227.404C165.292 228.864 170.144 228.323 174.42 225.878C175.889 229.245 177.991 232.148 180.555 234.353C183.12 236.558 186.076 238.004 189.186 238.574C192.296 239.144 195.474 238.822 198.462 237.635C201.451 236.448 204.168 234.428 206.395 231.738L218.506 217.075L218.509 217.071L218.512 217.068L230.624 202.405C233.969 198.353 236.025 193.001 236.43 187.294C236.835 181.586 235.563 175.888 232.838 171.204C230.113 166.521 226.11 163.152 221.534 161.691C216.959 160.231 212.104 160.773 207.826 163.221L207.826 163.221ZM182.069 164.902C183.117 163.632 184.363 162.625 185.733 161.938C187.103 161.251 188.572 160.897 190.055 160.897C191.539 160.897 193.007 161.251 194.378 161.938C195.748 162.625 196.993 163.632 198.042 164.902C199.091 166.172 199.923 167.679 200.49 169.338C201.058 170.997 201.35 172.776 201.35 174.571C201.35 176.367 201.058 178.145 200.49 179.804C199.922 181.463 199.091 182.97 198.042 184.24L189.035 195.144L173.061 175.806L182.069 164.902ZM173.812 213.573C171.693 216.134 168.82 217.573 165.826 217.573C162.831 217.573 159.959 216.134 157.839 213.573H157.839C156.79 212.303 155.958 210.796 155.39 209.137C154.822 207.478 154.53 205.7 154.53 203.904C154.53 202.108 154.822 200.33 155.39 198.671C155.958 197.012 156.79 195.504 157.839 194.235L166.846 183.331L182.819 202.669L173.812 213.573ZM200.179 224.213C198.836 225.839 197.176 227.028 195.353 227.672C193.53 228.315 191.602 228.391 189.747 227.893C187.893 227.396 186.173 226.34 184.745 224.824C183.317 223.308 182.227 221.381 181.578 219.221L192.139 206.434L192.142 206.431L192.145 206.427L197.823 199.553L209.186 213.309L200.179 224.213ZM224.409 194.88L215.402 205.785L204.039 192.028L204.256 191.765C206.127 189.512 207.611 186.833 208.621 183.881C209.631 180.93 210.147 177.766 210.14 174.571C210.14 174.332 210.131 174.095 210.125 173.857C212.455 171.963 215.284 171.187 218.061 171.68C220.838 172.173 223.363 173.899 225.146 176.523C226.929 179.147 227.841 182.481 227.705 185.874C227.568 189.268 226.393 192.478 224.409 194.88H224.409Z"/>
</mask>
<path d="M69.2052 221.236C69.2053 220.537 69.0916 219.846 68.8708 219.2C68.65 218.555 68.3263 217.968 67.9182 217.474C67.5101 216.98 67.0256 216.588 66.4924 216.321C65.9593 216.053 65.3878 215.916 64.8107 215.916H24.9727C23.8072 215.916 22.6894 216.476 21.8653 217.474C21.0411 218.472 20.5781 219.825 20.5781 221.236C20.5781 222.647 21.0411 224 21.8653 224.998C22.6894 225.996 23.8072 226.556 24.9727 226.556H64.8107C65.3878 226.556 65.9593 226.419 66.4924 226.151C67.0256 225.884 67.5101 225.492 67.9182 224.998C68.3263 224.504 68.65 223.918 68.8708 223.272C69.0916 222.627 69.2053 221.935 69.2052 221.236V221.236ZM24.9727 162.714H68.9729C70.1384 162.714 71.2562 162.154 72.0803 161.156C72.9044 160.158 73.3674 158.805 73.3674 157.394C73.3674 155.983 72.9044 154.63 72.0803 153.632C71.2562 152.634 70.1384 152.074 68.9729 152.074H24.9727C23.8072 152.074 22.6894 152.634 21.8653 153.632C21.0411 154.63 20.5781 155.983 20.5781 157.394C20.5781 158.805 21.0411 160.158 21.8653 161.156C22.6894 162.154 23.8072 162.714 24.9727 162.714V162.714ZM69.2052 189.315C69.2053 188.616 69.0916 187.925 68.8708 187.279C68.65 186.634 68.3263 186.047 67.9182 185.553C67.5101 185.059 67.0256 184.667 66.4924 184.4C65.9593 184.132 65.3878 183.995 64.8107 183.995H7.39453C6.22903 183.995 5.11126 184.555 4.28713 185.553C3.46299 186.551 3 187.904 3 189.315C3 190.726 3.46299 192.079 4.28713 193.077C5.11126 194.075 6.22903 194.635 7.39453 194.635H64.8107C65.3878 194.635 65.9593 194.498 66.4924 194.23C67.0256 193.963 67.5101 193.571 67.9182 193.077C68.3263 192.583 68.65 191.997 68.8708 191.351C69.0916 190.706 69.2053 190.014 69.2052 189.315V189.315ZM33.7617 130.793H77.7116C78.8771 130.793 79.9949 130.233 80.819 129.235C81.6431 128.237 82.1061 126.884 82.1061 125.473C82.1061 124.062 81.6431 122.709 80.819 121.711C79.9949 120.713 78.8771 120.153 77.7116 120.153H33.7617C32.5962 120.153 31.4784 120.713 30.6543 121.711C29.8302 122.709 29.3672 124.062 29.3672 125.473C29.3672 126.884 29.8302 128.237 30.6543 129.235C31.4784 130.233 32.5962 130.793 33.7617 130.793V130.793ZM270.232 98.7871C268.437 96.6135 266.591 94.5257 264.695 92.5238L271.166 79.4054L271.912 79.9442V79.9435C273.067 80.7846 274.39 81.2295 275.739 81.2306C276.361 81.2302 276.98 81.1364 277.583 80.9514C278.538 80.6635 279.436 80.1491 280.226 79.438C281.015 78.7269 281.68 77.8333 282.183 76.8089L288.53 63.94C289.549 61.8754 289.848 59.4055 289.363 57.0736C288.877 54.7417 287.646 52.7388 285.941 51.5056L261.492 33.8298C259.786 32.5995 257.747 32.2387 255.821 32.8265C253.896 33.4142 252.241 34.9026 251.221 36.9651L244.874 49.834C244.369 50.8562 244.036 51.9887 243.893 53.1669C243.75 54.345 243.801 55.5457 244.041 56.7004C244.282 57.855 244.708 58.941 245.295 59.8962C245.882 60.8515 246.619 61.6574 247.464 62.2678L248.211 62.8079L242.576 74.2266C231.718 67.403 220 62.806 207.9 60.6226V39.8712H211.553C214.359 39.8672 217.049 38.5158 219.034 36.1135C221.018 33.7111 222.135 30.4539 222.138 27.0564V15.8148C222.135 12.4173 221.018 9.1601 219.034 6.75771C217.049 4.35532 214.359 3.00393 211.553 3H170.695C167.889 3.00396 165.198 4.35538 163.214 6.75778C161.229 9.16018 160.113 12.4174 160.11 15.8148V27.0564C160.113 30.4538 161.229 33.711 163.214 36.1134C165.198 38.5158 167.889 39.8672 170.695 39.8712H174.348V60.6226C162.248 62.8059 150.53 67.403 139.671 74.2267L134.037 62.8081L134.783 62.2685C135.628 61.658 136.365 60.8522 136.952 59.8969C137.539 58.9416 137.965 57.8556 138.206 56.7009C138.447 55.5463 138.497 54.3455 138.354 53.1673C138.212 51.9891 137.879 50.8564 137.374 49.834L131.026 36.9652C130.005 34.9027 128.351 33.4143 126.426 32.8264C124.501 32.2385 122.461 32.5992 120.755 33.8292L96.3071 51.5063C94.6034 52.7412 93.3739 54.7438 92.8883 57.0748C92.4027 59.4057 92.7006 61.8747 93.7167 63.9401L100.065 76.8089C100.567 77.8334 101.232 78.7271 102.022 79.4381C102.811 80.1492 103.709 80.6636 104.664 80.9514C105.267 81.1364 105.886 81.2302 106.508 81.2306C107.857 81.2292 109.18 80.7843 110.336 79.9435V79.9442L111.081 79.4055L117.552 92.5237C115.66 94.5296 113.814 96.6173 112.015 98.7865C96.3689 117.728 85.7136 141.861 81.3966 168.135C77.0797 194.408 79.2951 221.64 87.7627 246.389C96.2303 271.138 110.57 292.291 128.968 307.174C147.366 322.056 168.996 330 191.123 330C213.25 330 234.88 322.057 253.278 307.174C271.676 292.292 286.016 271.139 294.484 246.39C302.951 221.641 305.167 194.409 300.85 168.136C296.534 141.862 285.878 117.729 270.232 98.7872L270.232 98.7871ZM258.101 43.7712L280.318 59.8343L275.303 70.0021L253.085 53.9391L258.101 43.7712ZM255.756 68.2634L263.62 73.9493L257.793 85.7617C255.33 83.5403 252.804 81.4527 250.212 79.4989L255.756 68.2634ZM170.695 29.2309C170.219 29.2301 169.762 29.0007 169.426 28.5931C169.089 28.1854 168.9 27.6328 168.899 27.0564V15.8148C168.9 15.2384 169.089 14.6857 169.426 14.2781C169.762 13.8705 170.219 13.6411 170.695 13.6403H211.553C212.029 13.6409 212.485 13.8702 212.822 14.2779C213.159 14.6856 213.348 15.2383 213.349 15.8148V27.0564C213.348 27.6329 213.159 28.1856 212.822 28.5933C212.485 29.001 212.029 29.2302 211.553 29.2309H170.695ZM199.111 39.8712V59.4595C196.465 59.2351 193.803 59.121 191.124 59.1173C188.446 59.1173 185.784 59.2314 183.137 59.4595V39.8712H199.111ZM132.035 79.4991C129.447 81.4552 126.921 83.5427 124.455 85.7617L118.627 73.9495L126.492 68.2634L132.035 79.4991ZM106.944 70.0021L101.929 59.835L124.146 43.7713L129.162 53.9391L106.944 70.0021ZM264.017 282.805C247.153 303.221 224.963 315.927 201.228 318.757C177.494 321.587 153.683 314.367 133.852 298.325C114.022 282.284 99.3996 258.415 92.4764 230.786C85.5532 203.156 86.7577 173.474 95.8845 146.799C105.011 120.124 121.496 98.1049 142.529 84.4942C163.563 70.8835 187.844 66.523 211.235 72.1559C234.627 77.7887 255.681 93.0662 270.811 115.385C285.941 137.705 294.211 165.685 294.211 194.558C294.248 210.953 291.598 227.195 286.416 242.343C281.233 257.49 273.62 271.243 264.017 282.805V282.805ZM250.009 123.27C236.385 106.777 218.46 96.5124 199.286 94.2261C180.112 91.9398 160.877 97.7728 144.858 110.731C128.838 123.69 117.026 142.972 111.433 165.292C105.84 187.612 106.813 211.589 114.186 233.138C121.559 254.688 134.875 272.475 151.867 283.47C168.858 294.465 188.473 297.988 207.369 293.438C226.266 288.887 243.274 276.545 255.497 258.515C267.719 240.485 274.4 217.882 274.4 194.558C274.429 181.313 272.289 168.193 268.102 155.956C263.916 143.719 257.766 132.61 250.009 123.27V123.27ZM246.731 254.553L242.442 249.361C241.618 248.363 240.5 247.802 239.334 247.802C238.169 247.802 237.051 248.363 236.227 249.361C235.402 250.359 234.939 251.712 234.939 253.123C234.939 254.534 235.402 255.887 236.227 256.885L240.505 262.065C228.042 275.508 212.184 283.442 195.518 284.574V277.299C195.518 275.888 195.055 274.534 194.231 273.537C193.407 272.539 192.289 271.978 191.124 271.978C189.958 271.978 188.84 272.539 188.016 273.537C187.192 274.534 186.729 275.888 186.729 277.299V284.574C170.007 283.438 154.1 275.454 141.619 261.932L145.787 256.885C146.608 255.887 147.068 254.535 147.067 253.126C147.066 251.717 146.603 250.366 145.78 249.37C144.957 248.374 143.841 247.813 142.677 247.812C141.514 247.81 140.397 248.367 139.572 249.361L135.408 254.403C124.277 239.305 117.706 220.082 116.769 199.878H122.779C123.945 199.878 125.062 199.317 125.886 198.32C126.711 197.322 127.174 195.969 127.174 194.558C127.174 193.147 126.711 191.793 125.886 190.796C125.062 189.798 123.945 189.237 122.779 189.237H116.769C117.705 169.061 124.259 149.864 135.362 134.776L139.572 139.872C139.98 140.366 140.465 140.758 140.998 141.026C141.531 141.293 142.103 141.431 142.68 141.431C143.257 141.431 143.828 141.293 144.362 141.026C144.895 140.758 145.379 140.366 145.787 139.872C146.195 139.378 146.519 138.792 146.74 138.146C146.961 137.501 147.075 136.809 147.075 136.11C147.075 135.411 146.961 134.719 146.74 134.074C146.519 133.428 146.195 132.842 145.787 132.348L141.567 127.239C154.056 113.684 169.983 105.679 186.729 104.542V111.817C186.729 113.228 187.192 114.581 188.016 115.579C188.84 116.576 189.958 117.137 191.124 117.137C192.289 117.137 193.407 116.576 194.231 115.579C195.055 114.581 195.518 113.228 195.518 111.817V104.542C212.208 105.676 228.086 113.63 240.557 127.106L236.227 132.348C235.402 133.346 234.939 134.699 234.939 136.11C234.939 137.521 235.402 138.874 236.227 139.872C237.051 140.87 238.169 141.431 239.334 141.431C240.5 141.431 241.618 140.87 242.442 139.872L246.776 134.625C257.945 149.735 264.54 168.993 265.479 189.237H259.469C258.303 189.237 257.186 189.798 256.362 190.796C255.537 191.793 255.074 193.147 255.074 194.558C255.074 195.969 255.537 197.322 256.362 198.32C257.186 199.317 258.303 199.878 259.469 199.878H265.479C264.539 220.151 257.927 239.434 246.731 254.553ZM73.5997 247.837H33.7617C32.5962 247.837 31.4784 248.397 30.6543 249.395C29.8302 250.393 29.3672 251.746 29.3672 253.157C29.3672 254.568 29.8302 255.921 30.6543 256.919C31.4784 257.917 32.5962 258.477 33.7617 258.477H73.5997C74.7652 258.477 75.883 257.917 76.7071 256.919C77.5313 255.921 77.9943 254.568 77.9943 253.157C77.9943 251.746 77.5313 250.393 76.7071 249.395C75.883 248.397 74.7652 247.837 73.5997 247.837ZM207.826 163.221C206.355 159.856 204.252 156.956 201.687 154.754C199.122 152.551 196.166 151.108 193.057 150.54C189.947 149.972 186.771 150.294 183.783 151.482C180.795 152.669 178.079 154.689 175.853 157.377L151.624 186.71C148.283 190.763 146.23 196.113 145.827 201.817C145.424 207.522 146.696 213.216 149.42 217.897C152.145 222.577 156.146 225.944 160.719 227.404C165.292 228.864 170.144 228.323 174.42 225.878C175.889 229.245 177.991 232.148 180.555 234.353C183.12 236.558 186.076 238.004 189.186 238.574C192.296 239.144 195.474 238.822 198.462 237.635C201.451 236.448 204.168 234.428 206.395 231.738L218.506 217.075L218.509 217.071L218.512 217.068L230.624 202.405C233.969 198.353 236.025 193.001 236.43 187.294C236.835 181.586 235.563 175.888 232.838 171.204C230.113 166.521 226.11 163.152 221.534 161.691C216.959 160.231 212.104 160.773 207.826 163.221L207.826 163.221ZM182.069 164.902C183.117 163.632 184.363 162.625 185.733 161.938C187.103 161.251 188.572 160.897 190.055 160.897C191.539 160.897 193.007 161.251 194.378 161.938C195.748 162.625 196.993 163.632 198.042 164.902C199.091 166.172 199.923 167.679 200.49 169.338C201.058 170.997 201.35 172.776 201.35 174.571C201.35 176.367 201.058 178.145 200.49 179.804C199.922 181.463 199.091 182.97 198.042 184.24L189.035 195.144L173.061 175.806L182.069 164.902ZM173.812 213.573C171.693 216.134 168.82 217.573 165.826 217.573C162.831 217.573 159.959 216.134 157.839 213.573H157.839C156.79 212.303 155.958 210.796 155.39 209.137C154.822 207.478 154.53 205.7 154.53 203.904C154.53 202.108 154.822 200.33 155.39 198.671C155.958 197.012 156.79 195.504 157.839 194.235L166.846 183.331L182.819 202.669L173.812 213.573ZM200.179 224.213C198.836 225.839 197.176 227.028 195.353 227.672C193.53 228.315 191.602 228.391 189.747 227.893C187.893 227.396 186.173 226.34 184.745 224.824C183.317 223.308 182.227 221.381 181.578 219.221L192.139 206.434L192.142 206.431L192.145 206.427L197.823 199.553L209.186 213.309L200.179 224.213ZM224.409 194.88L215.402 205.785L204.039 192.028L204.256 191.765C206.127 189.512 207.611 186.833 208.621 183.881C209.631 180.93 210.147 177.766 210.14 174.571C210.14 174.332 210.131 174.095 210.125 173.857C212.455 171.963 215.284 171.187 218.061 171.68C220.838 172.173 223.363 173.899 225.146 176.523C226.929 179.147 227.841 182.481 227.705 185.874C227.568 189.268 226.393 192.478 224.409 194.88H224.409Z" fill="white"/>
<path d="M69.2052 221.236C69.2053 220.537 69.0916 219.846 68.8708 219.2C68.65 218.555 68.3263 217.968 67.9182 217.474C67.5101 216.98 67.0256 216.588 66.4924 216.321C65.9593 216.053 65.3878 215.916 64.8107 215.916H24.9727C23.8072 215.916 22.6894 216.476 21.8653 217.474C21.0411 218.472 20.5781 219.825 20.5781 221.236C20.5781 222.647 21.0411 224 21.8653 224.998C22.6894 225.996 23.8072 226.556 24.9727 226.556H64.8107C65.3878 226.556 65.9593 226.419 66.4924 226.151C67.0256 225.884 67.5101 225.492 67.9182 224.998C68.3263 224.504 68.65 223.918 68.8708 223.272C69.0916 222.627 69.2053 221.935 69.2052 221.236V221.236ZM24.9727 162.714H68.9729C70.1384 162.714 71.2562 162.154 72.0803 161.156C72.9044 160.158 73.3674 158.805 73.3674 157.394C73.3674 155.983 72.9044 154.63 72.0803 153.632C71.2562 152.634 70.1384 152.074 68.9729 152.074H24.9727C23.8072 152.074 22.6894 152.634 21.8653 153.632C21.0411 154.63 20.5781 155.983 20.5781 157.394C20.5781 158.805 21.0411 160.158 21.8653 161.156C22.6894 162.154 23.8072 162.714 24.9727 162.714V162.714ZM69.2052 189.315C69.2053 188.616 69.0916 187.925 68.8708 187.279C68.65 186.634 68.3263 186.047 67.9182 185.553C67.5101 185.059 67.0256 184.667 66.4924 184.4C65.9593 184.132 65.3878 183.995 64.8107 183.995H7.39453C6.22903 183.995 5.11126 184.555 4.28713 185.553C3.46299 186.551 3 187.904 3 189.315C3 190.726 3.46299 192.079 4.28713 193.077C5.11126 194.075 6.22903 194.635 7.39453 194.635H64.8107C65.3878 194.635 65.9593 194.498 66.4924 194.23C67.0256 193.963 67.5101 193.571 67.9182 193.077C68.3263 192.583 68.65 191.997 68.8708 191.351C69.0916 190.706 69.2053 190.014 69.2052 189.315V189.315ZM33.7617 130.793H77.7116C78.8771 130.793 79.9949 130.233 80.819 129.235C81.6431 128.237 82.1061 126.884 82.1061 125.473C82.1061 124.062 81.6431 122.709 80.819 121.711C79.9949 120.713 78.8771 120.153 77.7116 120.153H33.7617C32.5962 120.153 31.4784 120.713 30.6543 121.711C29.8302 122.709 29.3672 124.062 29.3672 125.473C29.3672 126.884 29.8302 128.237 30.6543 129.235C31.4784 130.233 32.5962 130.793 33.7617 130.793V130.793ZM270.232 98.7871C268.437 96.6135 266.591 94.5257 264.695 92.5238L271.166 79.4054L271.912 79.9442V79.9435C273.067 80.7846 274.39 81.2295 275.739 81.2306C276.361 81.2302 276.98 81.1364 277.583 80.9514C278.538 80.6635 279.436 80.1491 280.226 79.438C281.015 78.7269 281.68 77.8333 282.183 76.8089L288.53 63.94C289.549 61.8754 289.848 59.4055 289.363 57.0736C288.877 54.7417 287.646 52.7388 285.941 51.5056L261.492 33.8298C259.786 32.5995 257.747 32.2387 255.821 32.8265C253.896 33.4142 252.241 34.9026 251.221 36.9651L244.874 49.834C244.369 50.8562 244.036 51.9887 243.893 53.1669C243.75 54.345 243.801 55.5457 244.041 56.7004C244.282 57.855 244.708 58.941 245.295 59.8962C245.882 60.8515 246.619 61.6574 247.464 62.2678L248.211 62.8079L242.576 74.2266C231.718 67.403 220 62.806 207.9 60.6226V39.8712H211.553C214.359 39.8672 217.049 38.5158 219.034 36.1135C221.018 33.7111 222.135 30.4539 222.138 27.0564V15.8148C222.135 12.4173 221.018 9.1601 219.034 6.75771C217.049 4.35532 214.359 3.00393 211.553 3H170.695C167.889 3.00396 165.198 4.35538 163.214 6.75778C161.229 9.16018 160.113 12.4174 160.11 15.8148V27.0564C160.113 30.4538 161.229 33.711 163.214 36.1134C165.198 38.5158 167.889 39.8672 170.695 39.8712H174.348V60.6226C162.248 62.8059 150.53 67.403 139.671 74.2267L134.037 62.8081L134.783 62.2685C135.628 61.658 136.365 60.8522 136.952 59.8969C137.539 58.9416 137.965 57.8556 138.206 56.7009C138.447 55.5463 138.497 54.3455 138.354 53.1673C138.212 51.9891 137.879 50.8564 137.374 49.834L131.026 36.9652C130.005 34.9027 128.351 33.4143 126.426 32.8264C124.501 32.2385 122.461 32.5992 120.755 33.8292L96.3071 51.5063C94.6034 52.7412 93.3739 54.7438 92.8883 57.0748C92.4027 59.4057 92.7006 61.8747 93.7167 63.9401L100.065 76.8089C100.567 77.8334 101.232 78.7271 102.022 79.4381C102.811 80.1492 103.709 80.6636 104.664 80.9514C105.267 81.1364 105.886 81.2302 106.508 81.2306C107.857 81.2292 109.18 80.7843 110.336 79.9435V79.9442L111.081 79.4055L117.552 92.5237C115.66 94.5296 113.814 96.6173 112.015 98.7865C96.3689 117.728 85.7136 141.861 81.3966 168.135C77.0797 194.408 79.2951 221.64 87.7627 246.389C96.2303 271.138 110.57 292.291 128.968 307.174C147.366 322.056 168.996 330 191.123 330C213.25 330 234.88 322.057 253.278 307.174C271.676 292.292 286.016 271.139 294.484 246.39C302.951 221.641 305.167 194.409 300.85 168.136C296.534 141.862 285.878 117.729 270.232 98.7872L270.232 98.7871ZM258.101 43.7712L280.318 59.8343L275.303 70.0021L253.085 53.9391L258.101 43.7712ZM255.756 68.2634L263.62 73.9493L257.793 85.7617C255.33 83.5403 252.804 81.4527 250.212 79.4989L255.756 68.2634ZM170.695 29.2309C170.219 29.2301 169.762 29.0007 169.426 28.5931C169.089 28.1854 168.9 27.6328 168.899 27.0564V15.8148C168.9 15.2384 169.089 14.6857 169.426 14.2781C169.762 13.8705 170.219 13.6411 170.695 13.6403H211.553C212.029 13.6409 212.485 13.8702 212.822 14.2779C213.159 14.6856 213.348 15.2383 213.349 15.8148V27.0564C213.348 27.6329 213.159 28.1856 212.822 28.5933C212.485 29.001 212.029 29.2302 211.553 29.2309H170.695ZM199.111 39.8712V59.4595C196.465 59.2351 193.803 59.121 191.124 59.1173C188.446 59.1173 185.784 59.2314 183.137 59.4595V39.8712H199.111ZM132.035 79.4991C129.447 81.4552 126.921 83.5427 124.455 85.7617L118.627 73.9495L126.492 68.2634L132.035 79.4991ZM106.944 70.0021L101.929 59.835L124.146 43.7713L129.162 53.9391L106.944 70.0021ZM264.017 282.805C247.153 303.221 224.963 315.927 201.228 318.757C177.494 321.587 153.683 314.367 133.852 298.325C114.022 282.284 99.3996 258.415 92.4764 230.786C85.5532 203.156 86.7577 173.474 95.8845 146.799C105.011 120.124 121.496 98.1049 142.529 84.4942C163.563 70.8835 187.844 66.523 211.235 72.1559C234.627 77.7887 255.681 93.0662 270.811 115.385C285.941 137.705 294.211 165.685 294.211 194.558C294.248 210.953 291.598 227.195 286.416 242.343C281.233 257.49 273.62 271.243 264.017 282.805V282.805ZM250.009 123.27C236.385 106.777 218.46 96.5124 199.286 94.2261C180.112 91.9398 160.877 97.7728 144.858 110.731C128.838 123.69 117.026 142.972 111.433 165.292C105.84 187.612 106.813 211.589 114.186 233.138C121.559 254.688 134.875 272.475 151.867 283.47C168.858 294.465 188.473 297.988 207.369 293.438C226.266 288.887 243.274 276.545 255.497 258.515C267.719 240.485 274.4 217.882 274.4 194.558C274.429 181.313 272.289 168.193 268.102 155.956C263.916 143.719 257.766 132.61 250.009 123.27V123.27ZM246.731 254.553L242.442 249.361C241.618 248.363 240.5 247.802 239.334 247.802C238.169 247.802 237.051 248.363 236.227 249.361C235.402 250.359 234.939 251.712 234.939 253.123C234.939 254.534 235.402 255.887 236.227 256.885L240.505 262.065C228.042 275.508 212.184 283.442 195.518 284.574V277.299C195.518 275.888 195.055 274.534 194.231 273.537C193.407 272.539 192.289 271.978 191.124 271.978C189.958 271.978 188.84 272.539 188.016 273.537C187.192 274.534 186.729 275.888 186.729 277.299V284.574C170.007 283.438 154.1 275.454 141.619 261.932L145.787 256.885C146.608 255.887 147.068 254.535 147.067 253.126C147.066 251.717 146.603 250.366 145.78 249.37C144.957 248.374 143.841 247.813 142.677 247.812C141.514 247.81 140.397 248.367 139.572 249.361L135.408 254.403C124.277 239.305 117.706 220.082 116.769 199.878H122.779C123.945 199.878 125.062 199.317 125.886 198.32C126.711 197.322 127.174 195.969 127.174 194.558C127.174 193.147 126.711 191.793 125.886 190.796C125.062 189.798 123.945 189.237 122.779 189.237H116.769C117.705 169.061 124.259 149.864 135.362 134.776L139.572 139.872C139.98 140.366 140.465 140.758 140.998 141.026C141.531 141.293 142.103 141.431 142.68 141.431C143.257 141.431 143.828 141.293 144.362 141.026C144.895 140.758 145.379 140.366 145.787 139.872C146.195 139.378 146.519 138.792 146.74 138.146C146.961 137.501 147.075 136.809 147.075 136.11C147.075 135.411 146.961 134.719 146.74 134.074C146.519 133.428 146.195 132.842 145.787 132.348L141.567 127.239C154.056 113.684 169.983 105.679 186.729 104.542V111.817C186.729 113.228 187.192 114.581 188.016 115.579C188.84 116.576 189.958 117.137 191.124 117.137C192.289 117.137 193.407 116.576 194.231 115.579C195.055 114.581 195.518 113.228 195.518 111.817V104.542C212.208 105.676 228.086 113.63 240.557 127.106L236.227 132.348C235.402 133.346 234.939 134.699 234.939 136.11C234.939 137.521 235.402 138.874 236.227 139.872C237.051 140.87 238.169 141.431 239.334 141.431C240.5 141.431 241.618 140.87 242.442 139.872L246.776 134.625C257.945 149.735 264.54 168.993 265.479 189.237H259.469C258.303 189.237 257.186 189.798 256.362 190.796C255.537 191.793 255.074 193.147 255.074 194.558C255.074 195.969 255.537 197.322 256.362 198.32C257.186 199.317 258.303 199.878 259.469 199.878H265.479C264.539 220.151 257.927 239.434 246.731 254.553ZM73.5997 247.837H33.7617C32.5962 247.837 31.4784 248.397 30.6543 249.395C29.8302 250.393 29.3672 251.746 29.3672 253.157C29.3672 254.568 29.8302 255.921 30.6543 256.919C31.4784 257.917 32.5962 258.477 33.7617 258.477H73.5997C74.7652 258.477 75.883 257.917 76.7071 256.919C77.5313 255.921 77.9943 254.568 77.9943 253.157C77.9943 251.746 77.5313 250.393 76.7071 249.395C75.883 248.397 74.7652 247.837 73.5997 247.837ZM207.826 163.221C206.355 159.856 204.252 156.956 201.687 154.754C199.122 152.551 196.166 151.108 193.057 150.54C189.947 149.972 186.771 150.294 183.783 151.482C180.795 152.669 178.079 154.689 175.853 157.377L151.624 186.71C148.283 190.763 146.23 196.113 145.827 201.817C145.424 207.522 146.696 213.216 149.42 217.897C152.145 222.577 156.146 225.944 160.719 227.404C165.292 228.864 170.144 228.323 174.42 225.878C175.889 229.245 177.991 232.148 180.555 234.353C183.12 236.558 186.076 238.004 189.186 238.574C192.296 239.144 195.474 238.822 198.462 237.635C201.451 236.448 204.168 234.428 206.395 231.738L218.506 217.075L218.509 217.071L218.512 217.068L230.624 202.405C233.969 198.353 236.025 193.001 236.43 187.294C236.835 181.586 235.563 175.888 232.838 171.204C230.113 166.521 226.11 163.152 221.534 161.691C216.959 160.231 212.104 160.773 207.826 163.221L207.826 163.221ZM182.069 164.902C183.117 163.632 184.363 162.625 185.733 161.938C187.103 161.251 188.572 160.897 190.055 160.897C191.539 160.897 193.007 161.251 194.378 161.938C195.748 162.625 196.993 163.632 198.042 164.902C199.091 166.172 199.923 167.679 200.49 169.338C201.058 170.997 201.35 172.776 201.35 174.571C201.35 176.367 201.058 178.145 200.49 179.804C199.922 181.463 199.091 182.97 198.042 184.24L189.035 195.144L173.061 175.806L182.069 164.902ZM173.812 213.573C171.693 216.134 168.82 217.573 165.826 217.573C162.831 217.573 159.959 216.134 157.839 213.573H157.839C156.79 212.303 155.958 210.796 155.39 209.137C154.822 207.478 154.53 205.7 154.53 203.904C154.53 202.108 154.822 200.33 155.39 198.671C155.958 197.012 156.79 195.504 157.839 194.235L166.846 183.331L182.819 202.669L173.812 213.573ZM200.179 224.213C198.836 225.839 197.176 227.028 195.353 227.672C193.53 228.315 191.602 228.391 189.747 227.893C187.893 227.396 186.173 226.34 184.745 224.824C183.317 223.308 182.227 221.381 181.578 219.221L192.139 206.434L192.142 206.431L192.145 206.427L197.823 199.553L209.186 213.309L200.179 224.213ZM224.409 194.88L215.402 205.785L204.039 192.028L204.256 191.765C206.127 189.512 207.611 186.833 208.621 183.881C209.631 180.93 210.147 177.766 210.14 174.571C210.14 174.332 210.131 174.095 210.125 173.857C212.455 171.963 215.284 171.187 218.061 171.68C220.838 172.173 223.363 173.899 225.146 176.523C226.929 179.147 227.841 182.481 227.705 185.874C227.568 189.268 226.393 192.478 224.409 194.88H224.409Z" stroke="white" stroke-width="6" mask="url(#path-1-outside-1_4_146)"/>
</svg>
