<svg width="300" height="360" viewBox="0 0 300 360" fill="none" xmlns="http://www.w3.org/2000/svg">
<path d="M208.297 38.4369C208.297 54.8762 193.431 69.3738 173.579 69.3738C153.727 69.3738 138.861 54.8762 138.861 38.4369C138.861 21.9976 153.727 7.5 173.579 7.5C193.431 7.5 208.297 21.9976 208.297 38.4369Z" stroke="white" stroke-width="15"/>
<path d="M232.35 177.186L232.35 177.186C224.939 174.937 218.614 170.488 214.462 164.811L208.408 169.238L214.461 164.808L188.961 129.965L178.667 115.9L175.531 133.045L161.874 207.709L160.997 212.504L165.022 215.252L210.85 246.54L210.855 246.543C217.686 251.2 222.226 257.859 223.839 265.134C223.84 265.138 223.84 265.141 223.841 265.144L241.697 346.464L215.068 351.323L197.095 269.506L196.456 266.599L193.999 264.921L140.868 228.637L131.864 222.488L129.342 233.095L118.428 278.989L118.426 278.998L118.424 279.008C116.65 286.554 111.771 293.309 104.431 297.913L32.6838 342.847L17.8415 323.191L88.4584 278.97L91.0647 277.338L91.7751 274.346L129.856 113.949L132.638 102.229L120.893 104.904L73.9681 115.589L70.6813 116.338L69.059 119.293L34.539 182.167L10.464 171.201L44.4405 109.317C44.4412 109.316 44.4419 109.314 44.4426 109.313C46.6222 105.353 49.7493 101.81 53.6551 98.9624C57.5637 96.1122 62.1459 94.0363 67.0968 92.9133L67.0997 92.9126L134.5 77.5955L134.512 77.5928L134.524 77.59C142.698 75.7043 151.335 76.5651 158.819 79.9715C158.819 79.9716 158.819 79.9716 158.82 79.9717L189.074 93.744C189.077 93.7454 189.08 93.7468 189.083 93.7481C194.529 96.2441 199.091 99.9407 202.383 104.411C202.385 104.414 202.387 104.417 202.388 104.419L237.482 152.355L238.96 154.374L241.355 155.101L290.226 169.938L282.036 192.27L232.35 177.186Z" stroke="white" stroke-width="15"/>
</svg>
