<svg width="306" height="366" viewBox="0 0 306 366" fill="none" xmlns="http://www.w3.org/2000/svg">
<path d="M27.4986 187.5H278.501C282.488 187.5 285.5 184.016 285.5 180C285.5 175.984 282.488 172.5 278.501 172.5H27.4986C23.5121 172.5 20.5 175.984 20.5 180C20.5 184.016 23.513 187.5 27.4986 187.5Z" fill="black" stroke="black" stroke-width="3"/>
<path d="M7.78723 314.584H7.88298V356.986C7.88298 360.798 10.3961 364.5 14.1702 364.5H64.5389C68.3131 364.5 70.8262 360.798 70.8262 356.986V331.126C70.8262 327.313 68.3131 323.612 64.5389 323.612C60.7648 323.612 58.2517 327.313 58.2517 331.126V349.472H20.4574V314.584H87.2253H87.2269H87.2314H87.239H87.2495H87.263H87.2794H87.2988H87.3211H87.3463H87.3744H87.4054H87.4393H87.4761H87.5158H87.5583H87.6036H87.6517H87.7027H87.7564H87.813H87.8723H87.9344H87.9992H88.0668H88.1371H88.2102H88.2859H88.3643H88.4454H88.5292H88.6157H88.7048H88.7965H88.8908H88.9878H89.0874H89.1895H89.2943H89.4015H89.5114H89.6238H89.7387H89.8561H89.9761H90.0985H90.2234H90.3508H90.4807H90.613H90.7477H90.8849H91.0245H91.1664H91.3108H91.4575H91.6066H91.7581H91.9119H92.068H92.2264H92.3872H92.5502H92.7156H92.8832H93.053H93.2251H93.3995H93.576H93.7548H93.9358H94.1189H94.3043H94.4918H94.6814H94.8733H95.0672H95.2632H95.4614H95.6616H95.864H96.0684H96.2748H96.4833H96.6939H96.9065H97.121H97.3376H97.5562H97.7767H97.9993H98.2237H98.4501H98.6785H98.9087H99.1409H99.3749H99.6109H99.8487H100.088H100.33H100.573H100.818H101.065H101.314H101.565H101.817H102.071H102.327H102.585H102.844H103.105H103.368H103.632H103.898H104.166H104.436H104.707H104.98H105.254H105.53H105.808H106.087H106.367H106.65H106.934H107.219H107.506H107.795H108.084H108.376H108.669H108.963H109.259H109.556H109.855H110.155H110.457H110.76H111.064H111.37H111.677H111.986H112.296H112.607H112.919H113.233H113.548H113.864H114.182H114.501H114.821H115.142H115.465H115.789H116.114H116.44H116.767H117.096H117.425H117.756H118.088H118.421H118.755H119.091H119.427H119.765H120.103H120.443H120.783H121.125H121.467H121.811H122.155H122.501H122.848H123.195H123.543H123.893H124.243H124.594H124.946H125.299H125.653H126.008H126.363H126.72H127.077H127.435H127.794H128.153H128.514H128.875H129.237H129.599H129.963H130.327H130.691H131.057H131.423H131.79H132.157H132.526H132.894H133.264H133.634H134.004H134.375H134.747H135.12H135.492H135.866H136.24H136.614H136.989H137.365H137.741H138.117H138.494H138.871H139.249H139.627H140.006H140.385H140.764H141.144H141.524H141.905H142.285H142.667H143.048H143.43H143.812H144.194H144.577H144.96H145.343H145.726H146.11H146.494H146.878H147.262H147.646H148.031H148.415H148.8H149.185H149.57H149.955H150.341H150.726H151.111H151.497H151.883H152.268H152.654H153.039H153.425H153.81H154.196H154.582H154.967H155.352H155.738H156.123H156.508H156.893H157.278H157.663H158.048H158.432H158.817H159.201H159.585H159.969H160.352H160.736H161.119H161.502H161.884H162.267H162.649H163.03H163.412H163.793H164.174H164.554H164.934H165.314H165.694H166.073H166.451H166.829H167.207H167.584H167.961H168.338H168.714H169.089H169.464H169.839H170.212H170.586H170.959H171.331H171.703H172.074H172.445H172.815H173.184H173.553H173.921H174.288H174.655H175.021H175.387H175.752H176.116H176.479H176.842H177.203H177.565H177.925H178.284H178.643H179.001H179.358H179.715H180.07H180.425H180.779H181.132H181.484H181.835H182.185H182.535H182.883H183.23H183.577H183.922H184.267H184.611H184.953H185.295H185.635H185.975H186.313H186.651H186.987H187.322H187.656H187.989H188.321H188.652H188.982H189.31H189.638H189.964H190.289H190.613H190.935H191.257H191.577H191.896H192.213H192.529H192.844H193.158H193.471H193.782H194.092H194.4H194.707H195.013H195.317H195.62H195.922H196.222H196.521H196.818H197.114H197.408H197.701H197.993H198.283H198.571H198.858H199.143H199.427H199.709H199.99H200.269H200.547H200.823H201.097H201.37H201.641H201.911H202.178H202.444H202.709H202.972H203.233H203.492H203.75H204.005H204.259H204.512H204.762H205.011H205.258H205.503H205.747H205.988H206.228H206.465H206.701H206.935H207.167H207.398H207.626H207.852H208.077H208.299H208.52H208.738H208.955H209.169H209.382H209.593H209.801H210.007H210.212H210.414H210.614H210.812H211.008H211.202H211.394H211.584H211.771H211.957H212.14H212.321H212.499H212.676H212.85H213.022H213.192H213.36H213.525H213.688H213.849H214.007H214.163H214.317H214.468H214.617H214.764H214.908H215.05H215.19H215.327H215.462H215.594H215.724H215.851H215.976H216.098H216.218H216.336H216.451H216.563H216.673H216.78H216.885H216.987H217.086H217.183H217.278H217.369H217.458H217.545H217.629H217.71H217.788H217.864H217.937H218.007H218.075H218.139H218.201H218.261H218.317H218.371H218.422H218.47H218.515H218.558H218.597H218.634H218.668H218.699H218.727H218.752H218.774H218.794H218.81H218.823H218.834H218.841H218.846C218.847 314.584 218.847 314.584 218.847 313.084V314.584H218.848H218.851H218.855H218.861H218.868H218.877H218.887H218.899H218.912H218.927H218.943H218.961H218.98H219.001H219.023H219.047H219.072H219.099H219.127H219.156H219.187H219.219H219.253H219.288H219.325H219.363H219.403H219.443H219.486H219.529H219.574H219.62H219.668H219.717H219.768H219.819H219.872H219.927H219.983H220.04H220.098H220.158H220.219H220.281H220.345H220.41H220.476H220.543H220.612H220.682H220.753H220.826H220.899H220.974H221.05H221.128H221.206H221.286H221.367H221.449H221.533H221.617H221.703H221.79H221.878H221.968H222.058H222.15H222.242H222.336H222.431H222.527H222.625H222.723H222.823H222.923H223.025H223.128H223.231H223.336H223.442H223.549H223.658H223.767H223.877H223.988H224.101H224.214H224.328H224.444H224.56H224.677H224.796H224.915H225.036H225.157H225.279H225.403H225.527H225.652H225.778H225.905H226.033H226.162H226.292H226.423H226.555H226.687H226.821H226.955H227.091H227.227H227.364H227.502H227.641H227.78H227.921H228.062H228.205H228.348H228.491H228.636H228.782H228.928H229.075H229.223H229.372H229.521H229.672H229.823H229.974H230.127H230.28H230.434H230.589H230.745H230.901H231.058H231.216H231.374H231.533H231.693H231.854H232.015H232.177H232.34H232.503H232.667H232.831H232.997H233.162H233.329H233.496H233.664H233.832H234.001H234.171H234.341H234.512H234.683H234.855H235.028H235.201H235.375H235.549H235.724H235.899H236.075H236.252H236.429H236.606H236.784H236.963H237.142H237.321H237.501H237.682H237.863H238.044H238.226H238.409H238.592H238.775H238.959H239.143H239.327H239.512H239.698H239.884H240.07H240.257H240.444H240.631H240.819H241.007H241.196H241.385H241.574H241.764H241.954H242.144H242.335H242.526H242.718H242.909H243.101H243.294H243.486H243.679H243.872H244.066H244.259H244.453H244.648H244.842H245.037H245.232H245.427H245.622H245.818H246.014H246.21H246.406H246.603H246.8H246.997H247.194H247.391H247.588H247.786H247.984H248.182H248.38H248.578H248.776H248.975H249.173H249.372H249.571H249.77H249.969H250.168H250.367H250.566H250.766H250.965H251.164H251.364H251.564H251.763H251.963H252.162H252.362H252.562H252.762H252.961H253.161H253.361H253.56H253.76H253.96H254.159H254.359H254.559H254.758H254.957H255.157H255.356H255.555H255.755H255.954H256.153H256.352H256.55H256.749H256.948H257.146H257.344H257.542H257.741H257.938H258.136H258.334H258.531H258.728H258.925H259.122H259.319H259.516H259.712H259.908H260.104H260.299H260.495H260.69H260.885H261.08H261.274H261.468H261.662H261.856H262.049H262.242H262.435H262.628H262.82H263.012H263.204H263.395H263.586H263.777H263.967H264.157H264.346H264.536H264.725H264.913H265.101H265.289H265.477H265.664H265.85H266.036H266.222H266.408H266.593H266.777H266.961H267.145H267.328H267.511H267.693H267.875H268.057H268.238H268.418H268.598H268.777H268.956H269.135H269.313H269.49H269.667H269.843H270.019H270.195H270.369H270.543H270.717H270.89H271.063H271.235H271.406H271.577H271.747H271.916H272.085H272.253H272.421H272.588H272.755H272.92H273.086H273.25H273.414H273.577H273.739H273.901H274.062H274.223H274.383H274.542H274.7H274.858H275.014H275.171H275.326H275.481H275.635H275.788H275.94H276.092H276.243H276.393H276.543H276.691H276.839H276.986H277.132H277.277H277.422H277.566H277.709H277.851H277.992H278.132H278.272H278.411H278.548H278.685H278.821H278.957H279.091H279.224H279.357H279.488H279.619H279.749H279.878H280.005H280.132H280.258H280.383H280.508H280.631H280.753H280.874H280.994H281.113H281.232H281.349H281.465H281.58H281.695H281.808H281.92H282.031H282.141H282.25H282.358H282.465H282.571H282.676H282.779H282.882H282.983H283.084H283.183H283.281H283.378H283.474H283.569H283.663H283.755H283.847H283.937H284.026H284.114H284.201H284.286H284.371H284.454H284.536H284.617H284.697H284.775H284.852H284.928H285.003H285.076H285.149H285.22H285.289H285.358H285.425H285.491H285.543V349.472H247.748V331.126C247.748 327.313 245.235 323.612 241.461 323.612C237.687 323.612 235.174 327.313 235.174 331.126V356.986C235.174 360.798 237.687 364.5 241.461 364.5H291.83C295.604 364.5 298.117 360.798 298.117 356.986V314.584H298.213C301.987 314.584 304.5 310.882 304.5 307.069V219.956C304.5 214.166 302.658 206.188 300.171 201.267L287.887 176.969L283.646 155.568H291.83C295.604 155.568 298.117 151.867 298.117 148.054C298.117 144.242 295.604 140.54 291.83 140.54H280.668L268.418 78.7258C265.226 62.6126 252.295 49.6123 238.527 49.6123H207.181L201.103 18.9415C199.207 9.37326 191.499 1.5 183.099 1.5H122.903C114.503 1.5 106.795 9.37325 104.898 18.9414L104.898 18.9415L98.8206 49.6123H67.4745C53.7068 49.6123 40.776 62.6126 37.5835 78.7257C37.5835 78.7258 37.5835 78.7258 37.5835 78.7258L25.3322 140.54H14.1702C10.3961 140.54 7.88298 144.242 7.88298 148.054C7.88298 151.867 10.3961 155.568 14.1702 155.568H22.3542L18.1133 176.969L5.82943 201.267L7.16809 201.943L5.8294 201.267C3.34156 206.188 1.5 214.166 1.5 219.956V307.069C1.5 310.882 4.0131 314.584 7.78723 314.584ZM30.1187 181.607L30.1188 181.607L49.8148 82.2149C50.7612 77.439 53.2988 73.0097 56.5837 69.7841C59.8822 66.5453 63.8032 64.6403 67.4726 64.6403H202.188H202.188H202.19H202.192H202.195H202.199H202.204H202.209H202.216H202.223H202.231H202.24H202.249H202.259H202.271H202.283H202.295H202.309H202.323H202.338H202.354H202.37H202.388H202.406H202.424H202.444H202.464H202.485H202.507H202.53H202.553H202.577H202.602H202.627H202.653H202.68H202.708H202.736H202.765H202.795H202.826H202.857H202.889H202.921H202.954H202.988H203.023H203.058H203.094H203.131H203.168H203.206H203.245H203.284H203.324H203.365H203.406H203.448H203.491H203.534H203.578H203.622H203.667H203.713H203.759H203.806H203.854H203.902H203.951H204.001H204.051H204.101H204.153H204.204H204.257H204.31H204.364H204.418H204.473H204.528H204.584H204.64H204.697H204.755H204.813H204.872H204.931H204.991H205.052H205.113H205.174H205.236H205.299H205.362H205.426H205.49H205.554H205.62H205.685H205.752H205.818H205.886H205.953H206.022H206.09H206.16H206.229H206.299H206.37H206.441H206.513H206.585H206.658H206.731H206.804H206.878H206.953H207.028H207.103H207.179H207.255H207.332H207.409H207.486H207.564H207.643H207.722H207.801H207.881H207.961H208.041H208.122H208.203H208.285H208.367H208.45H208.533H208.616H208.7H208.784H208.868H208.953H209.038H209.124H209.21H209.296H209.382H209.469H209.557H209.645H209.733H209.821H209.91H209.999H210.088H210.178H210.268H210.358H210.449H210.54H210.632H210.723H210.815H210.907H211H211.093H211.186H211.279H211.373H211.467H211.561H211.656H211.751H211.846H211.941H212.037H212.133H212.229H212.326H212.422H212.519H212.617H212.714H212.812H212.91H213.008H213.106H213.205H213.303H213.403H213.502H213.601H213.701H213.801H213.901H214.001H214.102H214.202H214.303H214.404H214.506H214.607H214.709H214.81H214.912H215.015H215.117H215.219H215.322H215.425H215.528H215.631H215.734H215.837H215.941H216.044H216.148H216.252H216.356H216.46H216.564H216.669H216.773H216.878H216.983H217.087H217.192H217.297H217.402H217.508H217.613H217.718H217.824H217.929H218.035H218.141H218.246H218.352H218.458H218.564H218.67H218.776H218.882H218.988H219.094H219.2H219.307H219.413H219.519H219.626H219.732H219.838H219.945H220.051H220.157H220.264H220.37H220.477H220.583H220.689H220.796H220.902H221.009H221.115H221.221H221.327H221.434H221.54H221.646H221.752H221.858H221.964H222.07H222.176H222.282H222.388H222.494H222.6H222.705H222.811H222.916H223.022H223.127H223.232H223.338H223.443H223.548H223.653H223.757H223.862H223.967H224.071H224.175H224.28H224.384H224.488H224.592H224.695H224.799H224.902H225.006H225.109H225.212H225.315H225.418H225.52H225.623H225.725H225.827H225.929H226.031H226.132H226.233H226.335H226.436H226.537H226.637H226.738H226.838H226.938H227.038H227.137H227.237H227.336H227.435H227.534H227.632H227.731H227.829H227.927H228.024H228.122H228.219H228.316H228.412H228.509H228.605H228.701H228.796H228.892H228.987H229.081H229.176H229.27H229.364H229.458H229.551H229.644H229.737H229.83H229.922H230.014H230.105H230.196H230.287H230.378H230.468H230.558H230.648H230.737H230.826H230.915H231.003H231.091H231.179H231.266H231.353H231.44H231.526H231.612H231.697H231.782H231.867H231.951H232.035H232.119H232.202H232.285H232.367H232.449H232.531H232.612H232.693H232.773H232.853H232.933H233.012H233.091H233.169H233.247H233.324H233.401H233.478H233.554H233.63H233.705H233.78H233.854H233.928H234.001H234.074H234.147H234.219H234.29H234.361H234.432H234.502H234.572H234.641H234.709H234.778H234.845H234.912H234.979H235.045H235.111H235.176H235.24H235.304H235.368H235.431H235.493H235.555H235.617H235.677H235.738H235.797H235.857H235.915H235.973H236.031H236.088H236.144H236.2H236.255H236.31H236.364H236.417H236.47H236.523H236.574H236.625H236.676H236.726H236.775H236.824H236.872H236.919H236.966H237.012H237.058H237.103H237.147H237.191H237.234H237.276H237.318H237.359H237.4H237.44H237.479H237.517H237.555H237.592H237.629H237.665H237.7H237.734H237.768H237.801H237.833H237.865H237.896H237.926H237.956H237.985H238.013H238.04H238.067H238.093H238.118H238.143H238.167H238.19H238.212H238.234H238.255H238.275H238.294H238.313H238.331H238.348H238.364H238.38H238.395H238.409H238.422H238.435H238.446H238.457H238.467H238.477H238.485H238.493H238.5H238.506H238.511H238.516H238.52H238.522H238.525H238.526C238.526 64.6403 238.526 64.6403 238.526 63.1403V64.6403C242.196 64.6403 246.117 66.5453 249.415 69.7841C252.7 73.0097 255.237 77.439 256.184 82.2149L275.88 181.607L275.88 181.607C276.03 182.362 276.277 183.09 276.617 183.763L276.617 183.763L289.41 209.07L290.749 208.393L289.41 209.07C290.033 210.302 290.669 212.241 291.15 214.32C291.63 216.395 291.924 218.472 291.924 219.956V299.555H223.202L211.972 264.254L210.543 264.708L211.972 264.253C211.105 261.529 208.881 259.426 206.097 259.426H99.9025C97.1187 259.426 94.8945 261.529 94.0274 264.253L95.4568 264.708L94.0274 264.254L82.7972 299.555H14.0745V219.956C14.0745 218.472 14.3684 216.395 14.8486 214.32C15.3298 212.241 15.9659 210.301 16.5889 209.069L29.3813 183.764C29.3814 183.764 29.3815 183.764 29.3816 183.763C29.7227 183.089 29.9692 182.361 30.1187 181.607ZM117.131 22.4308C117.131 22.4307 117.131 22.4307 117.131 22.4306C117.434 20.9037 118.313 19.3882 119.464 18.2583C120.635 17.1082 121.905 16.5281 122.902 16.5281H183.098C184.095 16.5281 185.365 17.1081 186.536 18.2583C187.687 19.3882 188.566 20.9037 188.869 22.4306C188.869 22.4307 188.869 22.4307 188.869 22.4308L194.255 49.6123H111.745L117.131 22.4308ZM201.759 274.454L209.743 299.555H96.257L104.242 274.454H201.759Z" fill="black" stroke="black" stroke-width="3"/>
<path d="M26.9362 272.45H44.9496C60.3495 272.45 72.3306 256.856 72.3306 238.436C72.3306 220.018 60.3502 204.423 44.9496 204.423H30.4711C26.6969 204.423 24.1838 208.125 24.1838 211.937C24.1838 215.749 26.6969 219.451 30.4711 219.451H44.9496C52.8117 219.451 59.7562 227.632 59.7562 238.436C59.7562 249.241 52.8117 257.422 44.9496 257.422H26.9362C23.162 257.422 20.6489 261.124 20.6489 264.936C20.6489 268.748 23.162 272.45 26.9362 272.45Z" fill="black" stroke="black" stroke-width="3"/>
<path d="M233.669 238.436C233.669 256.856 245.65 272.45 261.05 272.45H279.064C282.838 272.45 285.351 268.748 285.351 264.936C285.351 261.124 282.838 257.422 279.064 257.422H261.05C253.188 257.422 246.244 249.241 246.244 238.436C246.244 227.633 253.189 219.451 261.051 219.451H275.529C279.303 219.451 281.816 215.749 281.816 211.937C281.816 208.125 279.303 204.423 275.529 204.423H261.051C245.65 204.423 233.669 220.017 233.669 238.436Z" fill="black" stroke="black" stroke-width="3"/>
<path d="M177.706 25.5562H128.293C124.519 25.5562 122.006 29.2578 122.006 33.0702C122.006 36.8826 124.519 40.5842 128.293 40.5842H177.706C181.48 40.5842 183.993 36.8826 183.993 33.0702C183.993 29.2578 181.48 25.5562 177.706 25.5562Z" fill="black" stroke="black" stroke-width="3"/>
</svg>
