<svg width="264" height="364" viewBox="0 0 264 364" fill="none" xmlns="http://www.w3.org/2000/svg">
<path d="M40.089 32.8917L40.0891 32.8918C41.3849 35.2583 43.8612 36.5903 46.4038 36.5903C47.5386 36.5903 48.6914 36.3254 49.7622 35.7673C61.6907 29.5508 74.1424 24.7469 86.866 21.3227L98.4988 73.7779H63.9181C43.8187 73.7779 26.5569 87.1196 21.976 106.254L2.44829 187.821C2.44829 187.821 2.44828 187.821 2.44827 187.821C0.589197 195.584 0.518921 203.803 2.24323 211.595L19.3346 288.828C21.4286 298.291 27.627 306.126 35.8237 310.722L15.3195 352.984L16.2137 353.418L15.3195 352.984C13.6136 356.5 15.1626 360.68 18.731 362.328C19.7169 362.784 20.7572 363 21.7809 363C24.446 363 27.0217 361.532 28.2513 358.997L49.5935 315.008C50.5826 315.101 51.5835 315.154 52.5955 315.159L37.8241 353.517C36.4204 357.161 38.3212 361.2 42.0122 362.554L42.0127 362.554C42.8381 362.856 43.6862 363 44.5218 363C47.4019 363 50.1355 361.282 51.2211 358.463L58.3582 339.929H205.642L212.779 358.463C213.865 361.283 216.598 363 219.478 363C220.313 363 221.162 362.856 221.987 362.554L221.988 362.554C225.679 361.2 227.58 357.162 226.176 353.517L211.405 315.159C212.416 315.154 213.417 315.101 214.406 315.008L235.749 358.997C235.749 358.997 235.749 358.997 235.749 358.997C236.978 361.533 239.554 363 242.219 363C243.243 363 244.283 362.784 245.269 362.328C248.837 360.681 250.387 356.5 248.68 352.984C248.68 352.984 248.68 352.983 248.68 352.983L228.176 310.722C236.374 306.126 242.571 298.292 244.665 288.828L261.757 211.595C263.481 203.803 263.411 195.584 261.552 187.821L242.025 106.255C237.444 87.1196 220.183 73.7779 200.083 73.7779H166.528L178.345 20.4815C190.707 23.6002 202.781 28.0426 214.332 33.8458C217.831 35.6041 222.144 34.2709 223.961 30.8283C225.786 27.371 224.381 23.14 220.87 21.376C165.403 -6.49153 98.9236 -5.73138 43.0348 23.3943L43.497 24.2811L43.0348 23.3943C39.5493 25.2109 38.2116 29.4622 40.089 32.8917ZM16.2357 208.626L15.2614 208.842L16.2357 208.626C14.9587 202.858 15.0115 196.767 16.387 191.019L35.9148 109.453C38.9648 96.7138 50.4654 87.7936 63.9173 87.7936H200.083C213.535 87.7936 225.036 96.7131 228.085 109.453L229.058 109.22L228.085 109.453L247.613 191.019L248.586 190.787L247.613 191.019C248.989 196.766 249.041 202.857 247.764 208.626L230.673 285.859C228.717 294.697 220.555 301.144 211.245 301.144H52.7554C43.4448 301.144 35.2825 294.696 33.3271 285.86L16.2357 208.626ZM113.149 73.7747L100.811 18.1377C121.853 14.2033 143.385 14.0037 164.347 17.538L151.877 73.7747H113.149ZM196.103 315.16L200.244 325.913H63.7547L67.8958 315.16H196.103Z" fill="white" stroke="white" stroke-width="2"/>
<path d="M233.809 196.266L233.11 195.698L233.809 196.266C239.311 189.499 241.317 180.783 239.301 172.363L224.933 112.35C221.977 100.002 210.84 91.4014 197.886 91.4014H66.1148C53.1602 91.4014 42.0241 100.002 39.0683 112.35C39.0683 112.35 39.0683 112.35 39.0683 112.35L24.7007 172.363C22.6846 180.782 24.6905 189.499 30.1929 196.266C35.6941 203.031 43.9248 206.906 52.7612 206.906H211.241C220.077 206.906 228.307 203.031 233.809 196.266ZM53.0062 115.548L53.0062 115.548C54.4305 109.597 59.8061 105.417 66.1131 105.417H99.3846V109.789C99.3846 127.371 114.038 141.632 131.999 141.632C149.96 141.632 164.613 127.371 164.613 109.789V105.417H197.885C204.192 105.417 209.567 109.596 210.992 115.548L225.359 175.561L225.359 175.562C226.37 179.778 225.369 184.138 222.606 187.536C219.842 190.935 215.703 192.89 211.239 192.89H52.7596C48.2967 192.89 44.1568 190.935 41.3923 187.536C38.629 184.138 37.6287 179.778 38.6377 175.562L53.0062 115.548ZM113.703 105.419H150.297V109.791C150.297 119.596 142.111 127.617 132 127.617C121.888 127.617 113.703 119.596 113.703 109.791V105.419Z" fill="white" stroke="white" stroke-width="2"/>
<path d="M61.6369 238.005C47.4679 238.005 35.8998 249.256 35.8998 263.138C35.8998 277.021 47.4679 288.271 61.6369 288.271C75.8058 288.271 87.374 277.021 87.374 263.138C87.374 249.256 75.8067 238.005 61.6369 238.005ZM61.6369 274.255C55.3174 274.255 50.217 269.244 50.217 263.138C50.217 257.032 55.3174 252.021 61.6369 252.021C67.9564 252.021 73.0568 257.032 73.0568 263.138C73.0568 269.244 67.9572 274.255 61.6369 274.255Z" fill="white" stroke="white" stroke-width="2"/>
<path d="M202.362 238.005C188.193 238.005 176.625 249.256 176.625 263.138C176.625 277.021 188.193 288.271 202.362 288.271C216.531 288.271 228.099 277.021 228.099 263.138C228.099 249.256 216.531 238.005 202.362 238.005ZM202.362 274.255C196.043 274.255 190.942 269.244 190.942 263.138C190.942 257.032 196.043 252.021 202.362 252.021C208.682 252.021 213.782 257.032 213.782 263.138C213.782 269.244 208.682 274.255 202.362 274.255Z" fill="white" stroke="white" stroke-width="2"/>
</svg>
